<?xml version="1.0" encoding="utf-8"?>
<!-- Generator: Adobe Illustrator 16.0.0, SVG Export Plug-In . SVG Version: 6.00 Build 0)  -->
<!DOCTYPE svg PUBLIC "-//W3C//DTD SVG 1.1//EN" "http://www.w3.org/Graphics/SVG/1.1/DTD/svg11.dtd">
<svg version="1.1" id="Layer_1" xmlns="http://www.w3.org/2000/svg" xmlns:xlink="http://www.w3.org/1999/xlink" x="0px" y="0px"
	 width="27px" height="22.022px" viewBox="0 0 27 22.022" enable-background="new 0 0 27 22.022" xml:space="preserve">
<path fill="#FFFFFF" d="M26.351,2.865c-0.965,0.421-1.991,0.703-3.073,0.844c1.105-0.669,1.94-1.709,2.35-2.953
	c-1.029,0.604-2.181,1.054-3.39,1.292c-0.979-1.041-2.363-1.687-3.889-1.687c-2.945,0-5.336,2.391-5.336,5.336
	c0,0.415,0.042,0.821,0.141,1.208C8.709,6.688,4.78,4.565,2.158,1.332C1.7,2.126,1.426,3.04,1.426,4.018
	c0,1.856,0.956,3.486,2.383,4.444C2.931,8.432,2.116,8.193,1.398,7.786c0,0.028,0,0.05,0,0.07c0,2.587,1.828,4.739,4.274,5.231
	c-0.45,0.127-0.928,0.183-1.406,0.183c-0.338,0-0.675-0.029-1.006-0.099c0.682,2.124,2.65,3.67,4.984,3.713
	C6.418,18.31,4.112,19.16,1.623,19.16c-0.436,0-0.857-0.021-1.272-0.069c2.355,1.511,5.154,2.397,8.162,2.397
	c9.814,0,15.188-8.127,15.188-15.179c0-0.224-0.008-0.457-0.021-0.688C24.719,4.875,25.627,3.934,26.351,2.865z"/>
<g>
</g>
<g>
</g>
<g>
</g>
<g>
</g>
<g>
</g>
<g>
</g>
</svg>
