<?xml version="1.0" encoding="utf-8"?>
<!-- Generator: Adobe Illustrator 16.0.0, SVG Export Plug-In . SVG Version: 6.00 Build 0)  -->
<!DOCTYPE svg PUBLIC "-//W3C//DTD SVG 1.1//EN" "http://www.w3.org/Graphics/SVG/1.1/DTD/svg11.dtd">
<svg version="1.1" id="Layer_1" xmlns="http://www.w3.org/2000/svg" xmlns:xlink="http://www.w3.org/1999/xlink" x="0px" y="0px"
	 width="24px" height="23.994px" viewBox="0 0 24 23.994" enable-background="new 0 0 24 23.994" xml:space="preserve">
<path fill="#FFFFFF" d="M22.677,0H1.33C0.599,0,0,0.598,0,1.322V22.67c0,0.732,0.599,1.324,1.33,1.324h11.487v-9.288H9.694V11.08
	h3.123v-2.67c0-3.098,1.89-4.784,4.662-4.784c1.323,0,2.462,0.102,2.793,0.141V7.01h-1.915c-1.507,0-1.806,0.711-1.806,1.761v2.309
	h3.587l-0.457,3.626h-3.13v9.288h6.125c0.731,0,1.323-0.592,1.323-1.324V1.322C24,0.598,23.408,0,22.677,0z"/>
<g>
</g>
<g>
</g>
<g>
</g>
<g>
</g>
<g>
</g>
<g>
</g>
</svg>
