<?xml version="1.0" encoding="utf-8"?>
<!-- Generator: Adobe Illustrator 16.0.0, SVG Export Plug-In . SVG Version: 6.00 Build 0)  -->
<!DOCTYPE svg PUBLIC "-//W3C//DTD SVG 1.1//EN" "http://www.w3.org/Graphics/SVG/1.1/DTD/svg11.dtd">
<svg version="1.1" id="Layer_1" xmlns="http://www.w3.org/2000/svg" xmlns:xlink="http://www.w3.org/1999/xlink" x="0px" y="0px"
	 width="209px" height="209px" viewBox="-0.802 -0.802 209 209" enable-background="new -0.802 -0.802 209 209"
	 xml:space="preserve">
<g display="none">
	<g display="inline">
		<g>
			<g>
				<ellipse fill="#281946" cx="103.698" cy="102.14" rx="77.794" ry="102.14"/>
			</g>
		</g>
	</g>
	<g display="inline">
		<g>
			<g>
				<path fill="#FFFFFF" d="M137.683,123.253c0-1.589,0.979-2.875,2.189-2.875l0,0c1.21,0,2.19,1.287,2.19,2.875l0,0
					c0,1.589-0.98,2.875-2.19,2.875l0,0C138.663,126.129,137.683,124.842,137.683,123.253z M137.683,115.914
					c0-1.589,0.979-2.875,2.189-2.875l0,0c1.21,0,2.19,1.287,2.19,2.875l0,0c0,1.576-0.98,2.862-2.19,2.862l0,0
					C138.663,118.776,137.683,117.489,137.683,115.914z M137.683,108.562c0-1.589,0.979-2.875,2.189-2.875l0,0
					c1.21,0,2.19,1.287,2.19,2.875l0,0c0,1.589-0.98,2.875-2.19,2.875l0,0C138.663,111.437,137.683,110.15,137.683,108.562z
					 M137.683,101.222c0-1.59,0.979-2.875,2.189-2.875l0,0c1.21,0,2.19,1.286,2.19,2.875l0,0c0,1.575-0.98,2.861-2.19,2.861l0,0
					C138.663,104.084,137.683,102.798,137.683,101.222z M137.683,93.87c0-1.589,0.979-2.876,2.189-2.876l0,0
					c1.21,0,2.19,1.287,2.19,2.876l0,0c0,1.589-0.98,2.875-2.19,2.875l0,0C138.663,96.745,137.683,95.458,137.683,93.87z
					 M137.683,86.517c0-1.576,0.979-2.862,2.189-2.862l0,0c1.21,0,2.19,1.287,2.19,2.862l0,0c0,1.589-0.98,2.875-2.19,2.875l0,0
					C138.663,89.392,137.683,88.106,137.683,86.517z M137.683,79.177c0-1.589,0.979-2.875,2.189-2.875l0,0
					c1.21,0,2.19,1.287,2.19,2.875l0,0c0,1.59-0.98,2.876-2.19,2.876l0,0C138.663,82.052,137.683,80.766,137.683,79.177z"/>
			</g>
			<g>
				<path fill="#FFFFFF" d="M139.873,74.7c-0.569,0-1.14-0.302-1.54-0.84c-0.41-0.525-0.649-1.274-0.649-2.035
					c0-0.749,0.239-1.497,0.649-2.022c0.811-1.063,2.28-1.063,3.09,0c0.4,0.525,0.641,1.273,0.641,2.022
					c0,0.761-0.24,1.51-0.641,2.035C141.013,74.398,140.453,74.7,139.873,74.7z"/>
			</g>
		</g>
		<g>
			<g>
				<path fill="#FFFFFF" d="M132.143,160.082c0-1.589,0.979-2.875,2.18-2.875l0,0c1.21,0,2.19,1.287,2.19,2.875l0,0
					c0,1.589-0.98,2.875-2.19,2.875l0,0C133.123,162.957,132.143,161.67,132.143,160.082z M126.593,160.082
					c0-1.589,0.98-2.875,2.19-2.875l0,0c1.2,0,2.18,1.287,2.18,2.875l0,0c0,1.589-0.979,2.875-2.18,2.875l0,0
					C127.573,162.957,126.593,161.67,126.593,160.082z M121.043,160.082c0-1.589,0.98-2.875,2.19-2.875l0,0
					c1.21,0,2.189,1.287,2.189,2.875l0,0c0,1.589-0.979,2.875-2.189,2.875l0,0C122.023,162.957,121.043,161.67,121.043,160.082z
					 M115.493,160.082c0-1.589,0.98-2.875,2.19-2.875l0,0c1.21,0,2.189,1.287,2.189,2.875l0,0c0,1.589-0.979,2.875-2.189,2.875l0,0
					C116.473,162.957,115.493,161.67,115.493,160.082z M109.953,160.082c0-1.589,0.98-2.875,2.19-2.875l0,0
					c1.199,0,2.18,1.287,2.18,2.875l0,0c0,1.589-0.98,2.875-2.18,2.875l0,0C110.933,162.957,109.953,161.67,109.953,160.082z
					 M104.403,160.082c0-1.589,0.979-2.875,2.189-2.875l0,0c1.211,0,2.181,1.287,2.181,2.875l0,0c0,1.589-0.97,2.875-2.181,2.875
					l0,0C105.383,162.957,104.403,161.67,104.403,160.082z"/>
			</g>
		</g>
		<g>
			<g>
				<path fill="#FFFFFF" d="M65.783,152.848c0-1.59,0.97-2.875,2.18-2.875l0,0c1.21,0,2.19,1.286,2.19,2.875l0,0
					c0,1.589-0.98,2.861-2.19,2.861l0,0C66.753,155.709,65.783,154.436,65.783,152.848z M65.783,145.6
					c0-1.576,0.97-2.862,2.18-2.862l0,0c1.21,0,2.19,1.287,2.19,2.862l0,0c0,1.589-0.98,2.875-2.19,2.875l0,0
					C66.753,148.475,65.783,147.189,65.783,145.6z M65.783,138.365c0-1.589,0.97-2.875,2.18-2.875l0,0c1.21,0,2.19,1.287,2.19,2.875
					l0,0c0,1.589-0.98,2.875-2.19,2.875l0,0C66.753,141.241,65.783,139.954,65.783,138.365z M65.783,131.131
					c0-1.589,0.97-2.875,2.18-2.875l0,0c1.21,0,2.19,1.287,2.19,2.875l0,0c0,1.575-0.98,2.862-2.19,2.862l0,0
					C66.753,133.993,65.783,132.706,65.783,131.131z M65.783,123.884c0-1.589,0.97-2.861,2.18-2.861l0,0
					c1.21,0,2.19,1.273,2.19,2.861l0,0c0,1.59-0.98,2.875-2.19,2.875l0,0C66.753,126.759,65.783,125.472,65.783,123.884z
					 M65.783,116.649c0-1.589,0.97-2.875,2.18-2.875l0,0c1.21,0,2.19,1.287,2.19,2.875l0,0c0,1.576-0.98,2.861-2.19,2.861l0,0
					C66.753,119.51,65.783,118.225,65.783,116.649z M65.783,109.401c0-1.575,0.97-2.862,2.18-2.862l0,0
					c1.21,0,2.19,1.287,2.19,2.862l0,0c0,1.589-0.98,2.875-2.19,2.875l0,0C66.753,112.277,65.783,110.99,65.783,109.401z
					 M65.783,102.167c0-1.589,0.97-2.875,2.18-2.875l0,0c1.21,0,2.19,1.287,2.19,2.875l0,0c0,1.589-0.98,2.875-2.19,2.875l0,0
					C66.753,105.043,65.783,103.756,65.783,102.167z M65.783,94.933c0-1.59,0.97-2.875,2.18-2.875l0,0c1.21,0,2.19,1.286,2.19,2.875
					l0,0c0,1.575-0.98,2.861-2.19,2.861l0,0C66.753,97.795,65.783,96.508,65.783,94.933z M65.783,87.685
					c0-1.575,0.97-2.862,2.18-2.862l0,0c1.21,0,2.19,1.287,2.19,2.862l0,0c0,1.589-0.98,2.876-2.19,2.876l0,0
					C66.753,90.561,65.783,89.274,65.783,87.685z M65.783,80.451c0-1.589,0.97-2.875,2.18-2.875l0,0c1.21,0,2.19,1.287,2.19,2.875
					l0,0c0,1.589-0.98,2.875-2.19,2.875l0,0C66.753,83.326,65.783,82.04,65.783,80.451z M65.783,73.203
					c0-1.576,0.97-2.862,2.18-2.862l0,0c1.21,0,2.19,1.287,2.19,2.862l0,0c0,1.589-0.98,2.875-2.19,2.875l0,0
					C66.753,76.079,65.783,74.792,65.783,73.203z M65.783,65.969c0-1.589,0.97-2.876,2.18-2.876l0,0c1.21,0,2.19,1.287,2.19,2.876
					l0,0c0,1.59-0.98,2.875-2.19,2.875l0,0C66.753,68.844,65.783,67.558,65.783,65.969z"/>
			</g>
		</g>
		<g>
			<g>
				<path fill="#FFFFFF" d="M138.143,47.062c-0.58,0-1.141-0.303-1.551-0.84c-0.409-0.526-0.64-1.274-0.64-2.022
					c0-0.762,0.23-1.497,0.64-2.035c0.82-1.063,2.28-1.063,3.091,0c0.409,0.539,0.64,1.274,0.64,2.035
					c0,0.748-0.23,1.496-0.64,2.022C139.283,46.76,138.713,47.062,138.143,47.062z"/>
			</g>
			<g>
				<path fill="#FFFFFF" d="M130.553,44.2c0-1.589,0.979-2.875,2.18-2.875l0,0c1.21,0,2.189,1.287,2.189,2.875l0,0
					c0,1.589-0.979,2.862-2.189,2.862l0,0C131.533,47.062,130.553,45.789,130.553,44.2z M125.143,44.2
					c0-1.589,0.979-2.875,2.189-2.875l0,0c1.21,0,2.19,1.287,2.19,2.875l0,0c0,1.589-0.98,2.862-2.19,2.862l0,0
					C126.123,47.062,125.143,45.789,125.143,44.2z M119.743,44.2c0-1.589,0.98-2.875,2.19-2.875l0,0c1.21,0,2.189,1.287,2.189,2.875
					l0,0c0,1.589-0.979,2.862-2.189,2.862l0,0C120.723,47.062,119.743,45.789,119.743,44.2z M114.343,44.2
					c0-1.589,0.98-2.875,2.19-2.875l0,0c1.2,0,2.18,1.287,2.18,2.875l0,0c0,1.589-0.979,2.862-2.18,2.862l0,0
					C115.323,47.062,114.343,45.789,114.343,44.2z M108.943,44.2c0-1.589,0.979-2.875,2.18-2.875l0,0c1.21,0,2.19,1.287,2.19,2.875
					l0,0c0,1.589-0.98,2.862-2.19,2.862l0,0C109.923,47.062,108.943,45.789,108.943,44.2z M103.533,44.2
					c0-1.589,0.98-2.875,2.19-2.875l0,0c1.21,0,2.189,1.287,2.189,2.875l0,0c0,1.589-0.979,2.862-2.189,2.862l0,0
					C104.513,47.062,103.533,45.789,103.533,44.2z M98.133,44.2c0-1.589,0.98-2.875,2.19-2.875l0,0c1.21,0,2.18,1.287,2.18,2.875
					l0,0c0,1.589-0.97,2.862-2.18,2.862l0,0C99.113,47.062,98.133,45.789,98.133,44.2z M92.733,44.2
					c0-1.589,0.979-2.875,2.189-2.875l0,0c1.2,0,2.181,1.287,2.181,2.875l0,0c0,1.589-0.98,2.862-2.181,2.862l0,0
					C93.713,47.062,92.733,45.789,92.733,44.2z"/>
			</g>
		</g>
		<g>
			<g>
				<path fill="#FFFFFF" d="M67.965,61.603c-1.208,0-2.187-1.285-2.187-2.871V44.198c0-1.586,0.979-2.871,2.187-2.871h21.553
					c1.208,0,2.187,1.285,2.187,2.871s-0.979,2.871-2.187,2.871H70.152v11.663C70.152,60.318,69.173,61.603,67.965,61.603z"/>
			</g>
		</g>
		<g>
			<g>
				<path fill="#FFFFFF" d="M139.874,162.954c-1.208,0-2.187-1.285-2.187-2.871v-29.481c0-1.586,0.979-2.871,2.187-2.871
					s2.188,1.285,2.188,2.871v29.481C142.061,161.669,141.082,162.954,139.874,162.954z"/>
			</g>
		</g>
		<g>
			<g>
				<path fill="#FFFFFF" d="M78.613,70.958c-0.57,0-1.14-0.302-1.55-0.84c-0.4-0.538-0.641-1.273-0.641-2.035
					c0-0.749,0.24-1.497,0.641-2.021c0.81-1.076,2.279-1.076,3.1,0c0.4,0.524,0.641,1.272,0.641,2.021
					c0,0.762-0.24,1.497-0.65,2.035C79.753,70.656,79.183,70.958,78.613,70.958z"/>
			</g>
			<g>
				<path fill="#FFFFFF" d="M93.073,68.083c0-1.576,0.98-2.861,2.19-2.861l0,0c1.199,0,2.18,1.286,2.18,2.861l0,0
					c0,1.589-0.98,2.875-2.18,2.875l0,0C94.053,70.958,93.073,69.672,93.073,68.083z M87.523,68.083
					c0-1.576,0.979-2.861,2.189-2.861l0,0c1.21,0,2.181,1.286,2.181,2.861l0,0c0,1.589-0.971,2.875-2.181,2.875l0,0
					C88.503,70.958,87.523,69.672,87.523,68.083z M81.973,68.083c0-1.576,0.979-2.861,2.189-2.861l0,0c1.21,0,2.19,1.286,2.19,2.861
					l0,0c0,1.589-0.98,2.875-2.19,2.875l0,0C82.953,70.958,81.973,69.672,81.973,68.083z"/>
			</g>
			<g>
				<path fill="#FFFFFF" d="M100.813,70.958c-0.58,0-1.141-0.302-1.55-0.84c-0.41-0.538-0.641-1.273-0.641-2.035
					c0-0.749,0.23-1.497,0.641-2.021c0.81-1.076,2.279-1.076,3.09,0c0.41,0.524,0.64,1.272,0.64,2.021
					c0,0.762-0.229,1.497-0.64,2.035C101.953,70.656,101.383,70.958,100.813,70.958z"/>
			</g>
		</g>
		<g>
			<g>
				<path fill="#FFFFFF" d="M95.253,83.681c-0.58,0-1.14-0.303-1.55-0.841c-0.41-0.524-0.64-1.272-0.64-2.021
					c0-0.761,0.229-1.496,0.64-2.035c0.811-1.064,2.28-1.064,3.09,0c0.41,0.539,0.641,1.274,0.641,2.035
					c0,0.749-0.23,1.497-0.641,2.021C96.393,83.379,95.823,83.681,95.253,83.681z"/>
			</g>
			<g>
				<path fill="#FFFFFF" d="M100.813,83.681c-0.58,0-1.141-0.303-1.55-0.841c-0.41-0.524-0.641-1.272-0.641-2.021
					c0-0.761,0.23-1.496,0.641-2.035c0.81-1.064,2.279-1.064,3.09,0c0.41,0.539,0.64,1.274,0.64,2.035
					c0,0.749-0.229,1.497-0.64,2.021C101.953,83.379,101.383,83.681,100.813,83.681z"/>
			</g>
		</g>
		<g>
			<g>
				<path fill="#FFFFFF" d="M78.613,96.417c-0.58,0-1.14-0.302-1.55-0.84c-0.4-0.539-0.641-1.274-0.641-2.035
					c0-0.749,0.24-1.497,0.641-2.021c0.819-1.064,2.279-1.064,3.1,0c0.4,0.524,0.641,1.272,0.641,2.021
					c0,0.761-0.24,1.496-0.641,2.035C79.753,96.115,79.193,96.417,78.613,96.417z"/>
			</g>
			<g>
				<path fill="#FFFFFF" d="M121.413,93.554c0-1.59,0.98-2.875,2.19-2.875l0,0c1.21,0,2.189,1.286,2.189,2.875l0,0
					c0,1.575-0.979,2.861-2.189,2.861l0,0C122.393,96.417,121.413,95.13,121.413,93.554z M115.793,93.554
					c0-1.59,0.98-2.875,2.181-2.875l0,0c1.21,0,2.189,1.286,2.189,2.875l0,0c0,1.575-0.979,2.861-2.189,2.861l0,0
					C116.773,96.417,115.793,95.13,115.793,93.554z M110.163,93.554c0-1.59,0.98-2.875,2.19-2.875l0,0
					c1.21,0,2.189,1.286,2.189,2.875l0,0c0,1.575-0.979,2.861-2.189,2.861l0,0C111.143,96.417,110.163,95.13,110.163,93.554z
					 M104.543,93.554c0-1.59,0.98-2.875,2.19-2.875l0,0c1.21,0,2.189,1.286,2.189,2.875l0,0c0,1.575-0.979,2.861-2.189,2.861l0,0
					C105.523,96.417,104.543,95.13,104.543,93.554z M98.923,93.554c0-1.59,0.98-2.875,2.181-2.875l0,0
					c1.21,0,2.189,1.286,2.189,2.875l0,0c0,1.575-0.979,2.861-2.189,2.861l0,0C99.903,96.417,98.923,95.13,98.923,93.554z
					 M93.293,93.554c0-1.59,0.98-2.875,2.19-2.875l0,0c1.21,0,2.189,1.286,2.189,2.875l0,0c0,1.575-0.979,2.861-2.189,2.861l0,0
					C94.273,96.417,93.293,95.13,93.293,93.554z M87.673,93.554c0-1.59,0.98-2.875,2.19-2.875l0,0c1.2,0,2.18,1.286,2.18,2.875l0,0
					c0,1.575-0.979,2.861-2.18,2.861l0,0C88.653,96.417,87.673,95.13,87.673,93.554z M82.053,93.554c0-1.59,0.97-2.875,2.18-2.875
					l0,0c1.21,0,2.189,1.286,2.189,2.875l0,0c0,1.575-0.979,2.861-2.189,2.861l0,0C83.023,96.417,82.053,95.13,82.053,93.554z"/>
			</g>
			<g>
				<path fill="#FFFFFF" d="M129.223,96.417c-0.57,0-1.141-0.302-1.54-0.84c-0.41-0.539-0.641-1.274-0.641-2.035
					c0-0.749,0.23-1.497,0.641-2.021c0.81-1.064,2.27-1.077,3.09,0c0.41,0.524,0.64,1.272,0.64,2.021
					c0,0.761-0.229,1.496-0.64,2.035C130.363,96.115,129.803,96.417,129.223,96.417z"/>
			</g>
		</g>
		<g>
			<g>
				<path fill="#FFFFFF" d="M117.983,109.152c-0.57,0-1.141-0.315-1.54-0.84c-0.41-0.539-0.64-1.274-0.64-2.035
					c0-0.748,0.229-1.497,0.64-2.035c0.81-1.064,2.28-1.064,3.09,0c0.41,0.538,0.64,1.273,0.64,2.035s-0.229,1.497-0.64,2.035
					C119.123,108.837,118.563,109.152,117.983,109.152z"/>
			</g>
			<g>
				<path fill="#FFFFFF" d="M121.423,106.277c0-1.589,0.98-2.875,2.181-2.875l0,0c1.21,0,2.189,1.287,2.189,2.875l0,0
					c0,1.589-0.979,2.875-2.189,2.875l0,0C122.403,109.152,121.423,107.865,121.423,106.277z"/>
			</g>
			<g>
				<path fill="#FFFFFF" d="M129.223,109.152c-0.57,0-1.141-0.315-1.54-0.84c-0.41-0.539-0.641-1.274-0.641-2.035
					c0-0.748,0.23-1.497,0.641-2.035c0.81-1.064,2.27-1.064,3.09,0c0.41,0.538,0.64,1.287,0.64,2.035
					c0,0.762-0.229,1.497-0.64,2.035C130.363,108.837,129.803,109.152,129.223,109.152z"/>
			</g>
		</g>
		<g>
			<g>
				<path fill="#FFFFFF" d="M78.613,109.152c-0.58,0-1.14-0.315-1.55-0.84c-0.4-0.539-0.641-1.274-0.641-2.035
					c0-0.748,0.24-1.497,0.641-2.035c0.819-1.064,2.279-1.064,3.1,0c0.4,0.538,0.641,1.287,0.641,2.035
					c0,0.762-0.24,1.497-0.641,2.035C79.753,108.837,79.193,109.152,78.613,109.152z"/>
			</g>
			<g>
				<path fill="#FFFFFF" d="M84.203,109.152c-0.58,0-1.14-0.315-1.55-0.84c-0.41-0.539-0.64-1.274-0.64-2.035
					c0-0.748,0.229-1.497,0.64-2.035c0.82-1.064,2.28-1.064,3.09,0c0.41,0.538,0.64,1.273,0.64,2.035s-0.229,1.497-0.64,2.035
					C85.343,108.837,84.773,109.152,84.203,109.152z"/>
			</g>
		</g>
		<g>
			<g>
				<path fill="#FFFFFF" d="M78.613,121.888c-0.57,0-1.14-0.315-1.55-0.854c-0.4-0.526-0.641-1.274-0.641-2.021
					c0-0.763,0.24-1.497,0.641-2.035c0.81-1.064,2.279-1.064,3.1,0c0.4,0.539,0.641,1.273,0.641,2.035
					c0,0.747-0.24,1.495-0.641,2.021C79.753,121.573,79.183,121.888,78.613,121.888z"/>
			</g>
			<g>
				<path fill="#FFFFFF" d="M121.413,119.013c0-1.59,0.98-2.875,2.19-2.875l0,0c1.21,0,2.189,1.286,2.189,2.875l0,0
					c0,1.589-0.979,2.875-2.189,2.875l0,0C122.393,121.888,121.413,120.601,121.413,119.013z M115.793,119.013
					c0-1.59,0.98-2.875,2.19-2.875l0,0c1.2,0,2.18,1.286,2.18,2.875l0,0c0,1.589-0.979,2.875-2.18,2.875l0,0
					C116.773,121.888,115.793,120.601,115.793,119.013z M110.163,119.013c0-1.59,0.98-2.875,2.19-2.875l0,0
					c1.21,0,2.189,1.286,2.189,2.875l0,0c0,1.589-0.979,2.875-2.189,2.875l0,0C111.143,121.888,110.163,120.601,110.163,119.013z
					 M104.543,119.013c0-1.59,0.98-2.875,2.19-2.875l0,0c1.21,0,2.18,1.286,2.18,2.875l0,0c0,1.589-0.97,2.875-2.18,2.875l0,0
					C105.523,121.888,104.543,120.601,104.543,119.013z M98.923,119.013c0-1.59,0.98-2.875,2.181-2.875l0,0
					c1.21,0,2.189,1.286,2.189,2.875l0,0c0,1.589-0.979,2.875-2.189,2.875l0,0C99.903,121.888,98.923,120.601,98.923,119.013z
					 M93.293,119.013c0-1.59,0.98-2.875,2.19-2.875l0,0c1.21,0,2.189,1.286,2.189,2.875l0,0c0,1.589-0.979,2.875-2.189,2.875l0,0
					C94.273,121.888,93.293,120.601,93.293,119.013z M87.673,119.013c0-1.59,0.98-2.875,2.19-2.875l0,0c1.2,0,2.18,1.286,2.18,2.875
					l0,0c0,1.589-0.979,2.875-2.18,2.875l0,0C88.653,121.888,87.673,120.601,87.673,119.013z M82.053,119.013
					c0-1.59,0.97-2.875,2.18-2.875l0,0c1.21,0,2.189,1.286,2.189,2.875l0,0c0,1.589-0.979,2.875-2.189,2.875l0,0
					C83.023,121.888,82.053,120.601,82.053,119.013z"/>
			</g>
			<g>
				<path fill="#FFFFFF" d="M129.223,121.888c-0.57,0-1.131-0.315-1.54-0.854c-0.41-0.526-0.641-1.274-0.641-2.021
					c0-0.763,0.23-1.497,0.641-2.035c0.81-1.064,2.279-1.064,3.09,0c0.41,0.539,0.64,1.273,0.64,2.035
					c0,0.747-0.229,1.495-0.64,2.021C130.363,121.573,129.803,121.888,129.223,121.888z"/>
			</g>
		</g>
		<g>
			<g>
				<path fill="#FFFFFF" d="M78.613,134.61c-0.58,0-1.14-0.302-1.55-0.84c-0.4-0.538-0.641-1.273-0.641-2.035
					c0-0.749,0.24-1.497,0.641-2.022c0.81-1.063,2.279-1.076,3.1,0c0.4,0.525,0.641,1.273,0.641,2.022
					c0,0.762-0.24,1.497-0.641,2.035C79.753,134.308,79.193,134.61,78.613,134.61z"/>
			</g>
			<g>
				<path fill="#FFFFFF" d="M93.343,131.735c0-1.576,0.98-2.862,2.19-2.862l0,0c1.2,0,2.18,1.287,2.18,2.862l0,0
					c0,1.589-0.979,2.875-2.18,2.875l0,0C94.323,134.61,93.343,133.324,93.343,131.735z M87.703,131.735
					c0-1.576,0.98-2.862,2.19-2.862l0,0c1.199,0,2.18,1.287,2.18,2.862l0,0c0,1.589-0.98,2.875-2.18,2.875l0,0
					C88.683,134.61,87.703,133.324,87.703,131.735z M82.063,131.735c0-1.576,0.979-2.862,2.189-2.862l0,0
					c1.21,0,2.19,1.287,2.19,2.862l0,0c0,1.589-0.98,2.875-2.19,2.875l0,0C83.043,134.61,82.063,133.324,82.063,131.735z"/>
			</g>
			<g>
				<path fill="#FFFFFF" d="M101.173,134.61c-0.58,0-1.14-0.302-1.55-0.84s-0.64-1.273-0.64-2.035c0-0.749,0.229-1.497,0.64-2.022
					c0.811-1.076,2.28-1.076,3.09,0c0.41,0.525,0.641,1.273,0.641,2.022c0,0.762-0.23,1.497-0.641,2.035
					C102.313,134.308,101.743,134.61,101.173,134.61z"/>
			</g>
		</g>
		<g>
			<g>
				<path fill="#FFFFFF" d="M78.613,147.346c-0.58,0-1.14-0.315-1.55-0.841c-0.4-0.539-0.641-1.273-0.641-2.034
					c0-0.762,0.24-1.496,0.641-2.035c0.81-1.064,2.279-1.064,3.1,0c0.4,0.539,0.641,1.273,0.641,2.035s-0.24,1.496-0.65,2.034
					C79.753,147.031,79.193,147.346,78.613,147.346z"/>
			</g>
			<g>
				<path fill="#FFFFFF" d="M84.213,147.346c-0.569,0-1.14-0.315-1.54-0.841c-0.409-0.539-0.64-1.273-0.64-2.034
					c0-0.762,0.23-1.496,0.64-2.035c0.801-1.064,2.271-1.064,3.091,0c0.409,0.539,0.64,1.273,0.64,2.035s-0.23,1.496-0.64,2.034
					C85.353,147.031,84.793,147.346,84.213,147.346z"/>
			</g>
		</g>
		<g>
			<g>
				<path fill="#FFFFFF" d="M106.653,147.346c-0.58,0-1.14-0.315-1.55-0.841c-0.4-0.539-0.641-1.273-0.641-2.034
					c0-0.762,0.24-1.496,0.641-2.035c0.81-1.064,2.279-1.064,3.1,0c0.4,0.539,0.64,1.273,0.64,2.035s-0.239,1.496-0.64,2.034
					C107.793,147.031,107.233,147.346,106.653,147.346z"/>
			</g>
			<g>
				<path fill="#FFFFFF" d="M121.393,144.469c0-1.589,0.979-2.875,2.189-2.875l0,0c1.21,0,2.19,1.287,2.19,2.875l0,0
					c0,1.59-0.98,2.877-2.19,2.877l0,0C122.373,147.346,121.393,146.06,121.393,144.469z M115.753,144.469
					c0-1.589,0.98-2.875,2.19-2.875l0,0c1.2,0,2.18,1.287,2.18,2.875l0,0c0,1.59-0.979,2.877-2.18,2.877l0,0
					C116.733,147.346,115.753,146.06,115.753,144.469z M110.113,144.469c0-1.589,0.97-2.875,2.18-2.875l0,0
					c1.21,0,2.19,1.287,2.19,2.875l0,0c0,1.59-0.98,2.877-2.19,2.877l0,0C111.083,147.346,110.113,146.06,110.113,144.469z"/>
			</g>
			<g>
				<path fill="#FFFFFF" d="M129.223,147.346c-0.57,0-1.141-0.315-1.54-0.841c-0.41-0.539-0.641-1.273-0.641-2.034
					c0-0.762,0.23-1.496,0.641-2.035c0.81-1.064,2.279-1.064,3.09,0c0.41,0.539,0.64,1.273,0.64,2.035s-0.229,1.496-0.64,2.034
					C130.363,147.031,129.803,147.346,129.223,147.346z"/>
			</g>
		</g>
		<g>
			<g>
				<path fill="#FFFFFF" d="M89.633,83.688H78.612c-1.208,0-2.188-1.285-2.188-2.871s0.979-2.871,2.188-2.871h11.021
					c1.208,0,2.188,1.285,2.188,2.871S90.841,83.688,89.633,83.688z"/>
			</g>
		</g>
		<g>
			<g>
				<path fill="#FFFFFF" d="M112.388,109.15H89.792c-1.208,0-2.187-1.285-2.187-2.871s0.979-2.871,2.187-2.871h22.597
					c1.208,0,2.187,1.285,2.187,2.871S113.596,109.15,112.388,109.15z"/>
			</g>
		</g>
		<g>
			<g>
				<path fill="#FFFFFF" d="M129.226,134.612h-22.453c-1.208,0-2.188-1.285-2.188-2.871s0.979-2.871,2.188-2.871h22.453
					c1.208,0,2.187,1.285,2.187,2.871C131.413,133.326,130.434,134.612,129.226,134.612z"/>
			</g>
		</g>
		<g>
			<g>
				<path fill="#FFFFFF" d="M101.043,147.343H89.871c-1.208,0-2.187-1.284-2.187-2.87c0-1.587,0.979-2.871,2.187-2.871h11.172
					c1.208,0,2.188,1.284,2.188,2.871C103.23,146.057,102.251,147.343,101.043,147.343z"/>
			</g>
		</g>
		<g>
			<g>
				<path fill="#FFFFFF" d="M101.044,162.954h-33.08c-1.208,0-2.187-1.285-2.187-2.871s0.979-2.871,2.187-2.871h33.08
					c1.208,0,2.188,1.285,2.188,2.871S102.252,162.954,101.044,162.954z"/>
			</g>
		</g>
		<g>
			<path fill="#FF8C79" d="M120.086,86.57c-0.56,0-1.119-0.281-1.546-0.841l-8.127-10.67c-0.854-1.121-0.854-2.939,0-4.062
				c0.854-1.121,2.238-1.121,3.093,0l6.581,8.641l24.532-32.211c0.854-1.12,2.238-1.12,3.093,0c0.854,1.121,0.854,2.939,0,4.062
				l-26.079,34.24C121.205,86.289,120.646,86.57,120.086,86.57z"/>
		</g>
	</g>
</g>
<g>
	<g>
		<g>
			<circle fill="#281946" cx="103.695" cy="103.684" r="103.695"/>
		</g>
	</g>
	<g>
		<g>
			<g>
				<path fill="#FFFFFF" d="M37.236,118.218c0-1.319,1.068-2.399,2.398-2.399l0,0c1.32,0,2.4,1.08,2.4,2.399l0,0
					c0,1.33-1.08,2.4-2.4,2.4l0,0C38.304,120.618,37.236,119.548,37.236,118.218z M37.236,110.608c0-1.33,1.068-2.4,2.398-2.4l0,0
					c1.32,0,2.4,1.07,2.4,2.4l0,0c0,1.319-1.08,2.399-2.4,2.399l0,0C38.304,113.008,37.236,111.927,37.236,110.608z M37.236,102.978
					c0-1.32,1.068-2.4,2.398-2.4l0,0c1.32,0,2.4,1.08,2.4,2.4l0,0c0,1.33-1.08,2.399-2.4,2.399l0,0
					C38.304,105.378,37.236,104.308,37.236,102.978z M37.236,95.368c0-1.33,1.068-2.4,2.398-2.4l0,0c1.32,0,2.4,1.07,2.4,2.4l0,0
					c0,1.32-1.08,2.4-2.4,2.4l0,0C38.304,97.768,37.236,96.688,37.236,95.368z M37.236,87.748c0-1.33,1.068-2.399,2.398-2.399l0,0
					c1.32,0,2.4,1.069,2.4,2.399l0,0c0,1.32-1.08,2.4-2.4,2.4l0,0C38.304,90.148,37.236,89.068,37.236,87.748z M37.236,80.128
					c0-1.33,1.068-2.399,2.398-2.399l0,0c1.32,0,2.4,1.069,2.4,2.399l0,0c0,1.32-1.08,2.4-2.4,2.4l0,0
					C38.304,82.528,37.236,81.448,37.236,80.128z"/>
			</g>
			<g>
				<path fill="#FFFFFF" d="M39.635,128.238c-0.63,0-1.25-0.25-1.699-0.7c-0.449-0.439-0.699-1.06-0.699-1.689
					c0-0.641,0.25-1.25,0.699-1.7c0.899-0.9,2.5-0.9,3.391,0c0.449,0.45,0.71,1.06,0.71,1.7c0,0.63-0.261,1.25-0.71,1.689
					C40.885,127.988,40.264,128.238,39.635,128.238z"/>
			</g>
			<g>
				<path fill="#FFFFFF" d="M151.525,125.838c0-1.319,1.08-2.399,2.399-2.399l0,0c1.33,0,2.4,1.08,2.4,2.399l0,0
					c0,1.33-1.07,2.4-2.4,2.4l0,0C152.605,128.238,151.525,127.168,151.525,125.838z M143.906,125.838
					c0-1.319,1.08-2.399,2.398-2.399l0,0c1.33,0,2.4,1.08,2.4,2.399l0,0c0,1.33-1.07,2.4-2.4,2.4l0,0
					C144.986,128.238,143.906,127.168,143.906,125.838z M136.286,125.838c0-1.319,1.069-2.399,2.399-2.399l0,0
					c1.329,0,2.399,1.08,2.399,2.399l0,0c0,1.33-1.07,2.4-2.399,2.4l0,0C137.355,128.238,136.286,127.168,136.286,125.838z
					 M128.666,125.838c0-1.319,1.08-2.399,2.399-2.399l0,0c1.33,0,2.399,1.08,2.399,2.399l0,0c0,1.33-1.069,2.4-2.399,2.4l0,0
					C129.746,128.238,128.666,127.168,128.666,125.838z M121.046,125.838c0-1.319,1.08-2.399,2.4-2.399l0,0
					c1.329,0,2.398,1.08,2.398,2.399l0,0c0,1.33-1.069,2.4-2.398,2.4l0,0C122.126,128.238,121.046,127.168,121.046,125.838z
					 M113.426,125.838c0-1.319,1.08-2.399,2.4-2.399l0,0c1.33,0,2.399,1.08,2.399,2.399l0,0c0,1.33-1.069,2.4-2.399,2.4l0,0
					C114.506,128.238,113.426,127.168,113.426,125.838z M105.804,125.838c0-1.319,1.08-2.399,2.4-2.399l0,0
					c1.33,0,2.399,1.08,2.399,2.399l0,0c0,1.33-1.069,2.4-2.399,2.4l0,0C106.885,128.238,105.804,127.168,105.804,125.838z
					 M98.185,125.838c0-1.319,1.079-2.399,2.399-2.399l0,0c1.33,0,2.399,1.08,2.399,2.399l0,0c0,1.33-1.069,2.4-2.399,2.4l0,0
					C99.264,128.238,98.185,127.168,98.185,125.838z M90.565,125.838c0-1.319,1.08-2.399,2.399-2.399l0,0c1.33,0,2.4,1.08,2.4,2.399
					l0,0c0,1.33-1.07,2.4-2.4,2.4l0,0C91.645,128.238,90.565,127.168,90.565,125.838z M82.946,125.838
					c0-1.319,1.079-2.399,2.398-2.399l0,0c1.33,0,2.41,1.08,2.41,2.399l0,0c0,1.33-1.08,2.4-2.41,2.4l0,0
					C84.025,128.238,82.946,127.168,82.946,125.838z M75.326,125.838c0-1.319,1.08-2.399,2.399-2.399l0,0
					c1.329,0,2.409,1.08,2.409,2.399l0,0c0,1.33-1.08,2.4-2.409,2.4l0,0C76.406,128.238,75.326,127.168,75.326,125.838z
					 M67.716,125.838c0-1.319,1.07-2.399,2.4-2.399l0,0c1.319,0,2.39,1.08,2.39,2.399l0,0c0,1.33-1.069,2.4-2.39,2.4l0,0
					C68.786,128.238,67.716,127.168,67.716,125.838z M60.094,125.838c0-1.319,1.07-2.399,2.4-2.399l0,0
					c1.319,0,2.39,1.08,2.39,2.399l0,0c0,1.33-1.069,2.4-2.39,2.4l0,0C61.166,128.238,60.094,127.168,60.094,125.838z
					 M52.475,125.838c0-1.319,1.069-2.399,2.399-2.399l0,0c1.32,0,2.39,1.08,2.39,2.399l0,0c0,1.33-1.068,2.4-2.39,2.4l0,0
					C53.546,128.238,52.475,127.168,52.475,125.838z M44.855,125.838c0-1.319,1.069-2.399,2.399-2.399l0,0
					c1.32,0,2.4,1.08,2.4,2.399l0,0c0,1.33-1.08,2.4-2.4,2.4l0,0C45.926,128.238,44.855,127.168,44.855,125.838z"/>
			</g>
			<g>
				<path fill="#FFFFFF" d="M161.546,128.238c-0.63,0-1.25-0.25-1.689-0.7c-0.449-0.439-0.71-1.06-0.71-1.689
					c0-0.641,0.261-1.261,0.699-1.7c0.9-0.891,2.5-0.9,3.4,0c0.439,0.439,0.7,1.06,0.7,1.7c0,0.63-0.261,1.25-0.7,1.689
					C162.796,127.988,162.176,128.238,161.546,128.238z"/>
			</g>
			<g>
				<path fill="#FFFFFF" d="M159.145,118.028c0-1.33,1.08-2.4,2.399-2.4l0,0c1.33,0,2.4,1.07,2.4,2.4l0,0
					c0,1.33-1.07,2.399-2.4,2.399l0,0C160.225,120.427,159.145,119.358,159.145,118.028z M159.145,110.208
					c0-1.319,1.08-2.399,2.399-2.399l0,0c1.33,0,2.4,1.08,2.4,2.399l0,0c0,1.33-1.07,2.4-2.4,2.4l0,0
					C160.225,112.608,159.145,111.538,159.145,110.208z M159.145,102.398c0-1.33,1.08-2.4,2.399-2.4l0,0c1.33,0,2.4,1.07,2.4,2.4
					l0,0c0,1.319-1.07,2.399-2.4,2.399l0,0C160.225,104.798,159.145,103.718,159.145,102.398z M159.145,94.578
					c0-1.32,1.08-2.4,2.399-2.4l0,0c1.33,0,2.4,1.08,2.4,2.4l0,0c0,1.33-1.07,2.4-2.4,2.4l0,0
					C160.225,96.978,159.145,95.908,159.145,94.578z M159.145,86.768c0-1.33,1.08-2.4,2.399-2.4l0,0c1.33,0,2.4,1.07,2.4,2.4l0,0
					c0,1.319-1.07,2.399-2.4,2.399l0,0C160.225,89.168,159.145,88.088,159.145,86.768z M159.145,78.948c0-1.33,1.08-2.4,2.399-2.4
					l0,0c1.33,0,2.4,1.07,2.4,2.4l0,0c0,1.33-1.07,2.4-2.4,2.4l0,0C160.225,81.348,159.145,80.278,159.145,78.948z M159.145,71.128
					c0-1.319,1.08-2.399,2.399-2.399l0,0c1.33,0,2.4,1.08,2.4,2.399l0,0c0,1.33-1.07,2.4-2.4,2.4l0,0
					C160.225,73.528,159.145,72.458,159.145,71.128z M159.145,63.318c0-1.33,1.08-2.4,2.399-2.4l0,0c1.33,0,2.4,1.07,2.4,2.4l0,0
					c0,1.32-1.07,2.399-2.4,2.399l0,0C160.225,65.718,159.145,64.638,159.145,63.318z"/>
			</g>
			<g>
				<path fill="#FFFFFF" d="M161.546,57.898c-0.63,0-1.25-0.25-1.7-0.7c-0.438-0.45-0.699-1.07-0.699-1.7s0.261-1.25,0.699-1.689
					c0.9-0.9,2.5-0.9,3.4,0c0.439,0.439,0.7,1.06,0.7,1.689c0,0.641-0.261,1.25-0.7,1.7
					C162.796,57.648,162.176,57.898,161.546,57.898z"/>
			</g>
		</g>
		<g>
			<g>
				<path fill="#FFFFFF" d="M143.645,152.498c0-1.32,1.069-2.399,2.399-2.399l0,0c1.33,0,2.4,1.079,2.4,2.399l0,0
					c0,1.33-1.07,2.4-2.4,2.4l0,0C144.716,154.898,143.645,153.828,143.645,152.498z M136.025,152.498
					c0-1.32,1.069-2.399,2.399-2.399l0,0c1.33,0,2.4,1.079,2.4,2.399l0,0c0,1.33-1.07,2.4-2.4,2.4l0,0
					C137.094,154.898,136.025,153.828,136.025,152.498z M128.406,152.498c0-1.32,1.069-2.399,2.398-2.399l0,0
					c1.32,0,2.4,1.079,2.4,2.399l0,0c0,1.33-1.08,2.4-2.4,2.4l0,0C129.475,154.898,128.406,153.828,128.406,152.498z
					 M120.786,152.498c0-1.32,1.069-2.399,2.399-2.399l0,0c1.319,0,2.399,1.079,2.399,2.399l0,0c0,1.33-1.08,2.4-2.399,2.4l0,0
					C121.855,154.898,120.786,153.828,120.786,152.498z M113.156,152.498c0-1.32,1.08-2.399,2.398-2.399l0,0
					c1.33,0,2.4,1.079,2.4,2.399l0,0c0,1.33-1.07,2.4-2.4,2.4l0,0C114.236,154.898,113.156,153.828,113.156,152.498z
					 M105.536,152.498c0-1.32,1.069-2.399,2.399-2.399l0,0c1.329,0,2.399,1.079,2.399,2.399l0,0c0,1.33-1.07,2.4-2.399,2.4l0,0
					C106.605,154.898,105.536,153.828,105.536,152.498z M97.916,152.498c0-1.32,1.07-2.399,2.399-2.399l0,0
					c1.319,0,2.399,1.079,2.399,2.399l0,0c0,1.33-1.08,2.4-2.399,2.4l0,0C98.986,154.898,97.916,153.828,97.916,152.498z
					 M90.296,152.498c0-1.32,1.07-2.399,2.4-2.399l0,0c1.318,0,2.398,1.079,2.398,2.399l0,0c0,1.33-1.08,2.4-2.398,2.4l0,0
					C91.366,154.898,90.296,153.828,90.296,152.498z M82.666,152.498c0-1.32,1.08-2.399,2.399-2.399l0,0
					c1.33,0,2.399,1.079,2.399,2.399l0,0c0,1.33-1.069,2.4-2.399,2.4l0,0C83.746,154.898,82.666,153.828,82.666,152.498z
					 M75.046,152.498c0-1.32,1.08-2.399,2.4-2.399l0,0c1.329,0,2.398,1.079,2.398,2.399l0,0c0,1.33-1.069,2.4-2.398,2.4l0,0
					C76.126,154.898,75.046,153.828,75.046,152.498z M67.426,152.498c0-1.32,1.07-2.399,2.4-2.399l0,0
					c1.319,0,2.399,1.079,2.399,2.399l0,0c0,1.33-1.08,2.4-2.399,2.4l0,0C68.496,154.898,67.426,153.828,67.426,152.498z"/>
			</g>
			<g>
				<path fill="#FFFFFF" d="M62.206,154.898c-0.641,0-1.26-0.26-1.7-0.7c-0.45-0.45-0.71-1.07-0.71-1.7s0.26-1.25,0.71-1.7
					c0.891-0.89,2.5-0.89,3.391,0c0.449,0.45,0.71,1.07,0.71,1.7s-0.261,1.25-0.71,1.7
					C63.456,154.638,62.836,154.898,62.206,154.898z"/>
			</g>
		</g>
		<g>
			<g>
				<path fill="#FFFFFF" d="M165.264,134.858c-0.63,0-1.25-0.26-1.699-0.71c-0.439-0.44-0.699-1.061-0.699-1.69s0.26-1.25,0.699-1.7
					c0.899-0.89,2.5-0.89,3.399,0c0.44,0.45,0.7,1.07,0.7,1.7s-0.26,1.25-0.7,1.69C166.514,134.598,165.895,134.858,165.264,134.858
					z"/>
			</g>
			<g>
				<path fill="#FFFFFF" d="M166.966,140.378c-0.649-1.149-0.239-2.62,0.92-3.27l0,0c1.15-0.65,2.62-0.24,3.261,0.92l0,0
					c0.649,1.16,0.239,2.62-0.909,3.27l0,0c-0.37,0.21-0.78,0.311-1.182,0.311l0,0C168.225,141.608,167.406,141.158,166.966,140.378
					z"/>
			</g>
		</g>
		<g>
			<g>
				<path fill="#FFFFFF" d="M153.946,57.898c-0.631,0-1.25-0.25-1.69-0.7c-0.45-0.45-0.71-1.07-0.71-1.7s0.26-1.25,0.71-1.689
					c0.891-0.9,2.5-0.9,3.391,0c0.449,0.439,0.699,1.06,0.699,1.689s-0.25,1.25-0.699,1.7
					C155.196,57.648,154.586,57.898,153.946,57.898z"/>
			</g>
			<g>
				<path fill="#FFFFFF" d="M143.946,55.498c0-1.32,1.068-2.399,2.398-2.399l0,0c1.33,0,2.4,1.079,2.4,2.399l0,0
					c0,1.33-1.07,2.4-2.4,2.4l0,0C145.014,57.898,143.946,56.828,143.946,55.498z M136.336,55.498c0-1.32,1.08-2.399,2.4-2.399l0,0
					c1.329,0,2.398,1.079,2.398,2.399l0,0c0,1.33-1.069,2.4-2.398,2.4l0,0C137.416,57.898,136.336,56.828,136.336,55.498z
					 M128.736,55.498c0-1.32,1.068-2.399,2.398-2.399l0,0c1.32,0,2.4,1.079,2.4,2.399l0,0c0,1.33-1.08,2.4-2.4,2.4l0,0
					C129.804,57.898,128.736,56.828,128.736,55.498z M121.126,55.498c0-1.32,1.08-2.399,2.399-2.399l0,0
					c1.33,0,2.399,1.079,2.399,2.399l0,0c0,1.33-1.069,2.4-2.399,2.4l0,0C122.206,57.898,121.126,56.828,121.126,55.498z
					 M113.525,55.498c0-1.32,1.069-2.399,2.399-2.399l0,0c1.32,0,2.4,1.079,2.4,2.399l0,0c0,1.33-1.08,2.4-2.4,2.4l0,0
					C114.594,57.898,113.525,56.828,113.525,55.498z M105.916,55.498c0-1.32,1.08-2.399,2.399-2.399l0,0
					c1.33,0,2.399,1.079,2.399,2.399l0,0c0,1.33-1.069,2.4-2.399,2.4l0,0C106.996,57.898,105.916,56.828,105.916,55.498z
					 M98.315,55.498c0-1.32,1.069-2.399,2.399-2.399l0,0c1.32,0,2.4,1.079,2.4,2.399l0,0c0,1.33-1.08,2.4-2.4,2.4l0,0
					C99.385,57.898,98.315,56.828,98.315,55.498z M90.706,55.498c0-1.32,1.08-2.399,2.399-2.399l0,0c1.33,0,2.399,1.079,2.399,2.399
					l0,0c0,1.33-1.069,2.4-2.399,2.4l0,0C91.786,57.898,90.706,56.828,90.706,55.498z"/>
			</g>
		</g>
		<g>
			<g>
				<path fill="#FFFFFF" d="M131.536,112.677c-0.63,0-1.25-0.26-1.7-0.699c-0.45-0.45-0.7-1.07-0.7-1.7s0.25-1.25,0.7-1.7
					c0.891-0.89,2.5-0.89,3.391,0c0.449,0.45,0.699,1.07,0.699,1.7s-0.25,1.25-0.699,1.7
					C132.775,112.418,132.156,112.677,131.536,112.677z"/>
			</g>
			<g>
				<path fill="#FFFFFF" d="M137.025,110.278c0-1.33,1.069-2.4,2.399-2.4l0,0c1.32,0,2.391,1.07,2.391,2.4l0,0
					c0,1.32-1.069,2.399-2.391,2.399l0,0C138.094,112.677,137.025,111.598,137.025,110.278z"/>
			</g>
			<g>
				<path fill="#FFFFFF" d="M147.315,112.677c-0.63,0-1.25-0.26-1.699-0.699c-0.44-0.45-0.7-1.07-0.7-1.7c0-0.64,0.26-1.25,0.7-1.7
					c0.89-0.89,2.51-0.89,3.398,0c0.44,0.45,0.7,1.07,0.7,1.7s-0.26,1.25-0.7,1.7C148.565,112.418,147.946,112.677,147.315,112.677z
					"/>
			</g>
		</g>
		<g>
			<g>
				<path fill="#FFFFFF" d="M100.065,99.618c-0.63,0-1.239-0.26-1.689-0.71c-0.45-0.44-0.71-1.06-0.71-1.69
					c0-0.64,0.26-1.26,0.71-1.699c0.89-0.891,2.5-0.891,3.39,0c0.45,0.449,0.7,1.06,0.7,1.699c0,0.631-0.25,1.25-0.7,1.69
					C101.315,99.358,100.696,99.618,100.065,99.618z"/>
			</g>
			<g>
				<path fill="#FFFFFF" d="M137.036,97.218c0-1.329,1.08-2.399,2.399-2.399l0,0c1.329,0,2.399,1.07,2.399,2.399l0,0
					c0,1.32-1.07,2.4-2.399,2.4l0,0C138.116,99.618,137.036,98.538,137.036,97.218z M129.166,97.218c0-1.329,1.07-2.399,2.399-2.399
					l0,0c1.319,0,2.399,1.07,2.399,2.399l0,0c0,1.32-1.08,2.4-2.399,2.4l0,0C130.236,99.618,129.166,98.538,129.166,97.218z
					 M121.296,97.218c0-1.329,1.07-2.399,2.4-2.399l0,0c1.318,0,2.398,1.07,2.398,2.399l0,0c0,1.32-1.08,2.4-2.398,2.4l0,0
					C122.366,99.618,121.296,98.538,121.296,97.218z M113.416,97.218c0-1.329,1.07-2.399,2.399-2.399l0,0
					c1.33,0,2.399,1.07,2.399,2.399l0,0c0,1.32-1.069,2.4-2.399,2.4l0,0C114.486,99.618,113.416,98.538,113.416,97.218z
					 M105.546,97.218c0-1.329,1.07-2.399,2.4-2.399l0,0c1.318,0,2.398,1.07,2.398,2.399l0,0c0,1.32-1.08,2.4-2.398,2.4l0,0
					C106.616,99.618,105.546,98.538,105.546,97.218z"/>
			</g>
			<g>
				<path fill="#FFFFFF" d="M147.315,99.618c-0.63,0-1.25-0.26-1.699-0.71c-0.44-0.44-0.7-1.06-0.7-1.69c0-0.64,0.26-1.26,0.7-1.699
					c0.898-0.891,2.5-0.891,3.398,0c0.44,0.449,0.7,1.06,0.7,1.699c0,0.631-0.26,1.25-0.7,1.69
					C148.565,99.358,147.946,99.618,147.315,99.618z"/>
			</g>
		</g>
		<g>
			<g>
				<path fill="#FFFFFF" d="M100.065,86.548c-0.63,0-1.25-0.25-1.689-0.699c-0.45-0.45-0.71-1.061-0.71-1.7
					c0-0.63,0.26-1.25,0.71-1.69c0.89-0.899,2.49-0.899,3.39,0c0.45,0.44,0.7,1.061,0.7,1.69s-0.25,1.25-0.7,1.7
					C101.326,86.298,100.706,86.548,100.065,86.548z"/>
			</g>
			<g>
				<path fill="#FFFFFF" d="M104.366,84.148c0-1.32,1.069-2.4,2.398-2.4l0,0c1.32,0,2.4,1.08,2.4,2.4l0,0
					c0,1.33-1.08,2.399-2.4,2.399l0,0C105.435,86.548,104.366,85.478,104.366,84.148z"/>
			</g>
			<g>
				<path fill="#FFFFFF" d="M113.466,86.548c-0.63,0-1.25-0.25-1.7-0.699c-0.449-0.45-0.71-1.07-0.71-1.7s0.261-1.25,0.71-1.69
					c0.892-0.89,2.5-0.899,3.392,0c0.449,0.45,0.699,1.061,0.699,1.69s-0.25,1.25-0.699,1.7
					C114.706,86.298,114.086,86.548,113.466,86.548z"/>
			</g>
		</g>
		<g>
			<g>
				<path fill="#FFFFFF" d="M100.065,73.488c-0.63,0-1.25-0.25-1.689-0.7c-0.45-0.45-0.71-1.06-0.71-1.7
					c0-0.63,0.26-1.25,0.71-1.699c0.89-0.891,2.5-0.891,3.39,0c0.45,0.449,0.7,1.069,0.7,1.699s-0.25,1.25-0.7,1.7
					S100.706,73.488,100.065,73.488z"/>
			</g>
			<g>
				<path fill="#FFFFFF" d="M137.036,71.088c0-1.319,1.08-2.399,2.399-2.399l0,0c1.329,0,2.399,1.08,2.399,2.399l0,0
					c0,1.33-1.07,2.4-2.399,2.4l0,0C138.116,73.488,137.036,72.418,137.036,71.088z M129.166,71.088c0-1.319,1.07-2.399,2.399-2.399
					l0,0c1.319,0,2.399,1.08,2.399,2.399l0,0c0,1.33-1.08,2.4-2.399,2.4l0,0C130.236,73.488,129.166,72.418,129.166,71.088z
					 M121.296,71.088c0-1.319,1.07-2.399,2.4-2.399l0,0c1.318,0,2.398,1.08,2.398,2.399l0,0c0,1.33-1.08,2.4-2.398,2.4l0,0
					C122.366,73.488,121.296,72.418,121.296,71.088z M113.416,71.088c0-1.319,1.07-2.399,2.399-2.399l0,0
					c1.33,0,2.399,1.08,2.399,2.399l0,0c0,1.33-1.069,2.4-2.399,2.4l0,0C114.486,73.488,113.416,72.418,113.416,71.088z
					 M105.546,71.088c0-1.319,1.07-2.399,2.4-2.399l0,0c1.318,0,2.398,1.08,2.398,2.399l0,0c0,1.33-1.08,2.4-2.398,2.4l0,0
					C106.616,73.488,105.546,72.418,105.546,71.088z"/>
			</g>
			<g>
				<path fill="#FFFFFF" d="M147.315,73.488c-0.63,0-1.25-0.25-1.699-0.7c-0.44-0.439-0.7-1.06-0.7-1.7c0-0.63,0.26-1.25,0.7-1.699
					c0.898-0.891,2.5-0.891,3.398,0c0.44,0.449,0.7,1.069,0.7,1.699s-0.26,1.25-0.7,1.7
					C148.565,73.238,147.946,73.488,147.315,73.488z"/>
			</g>
		</g>
		<g>
			<g>
				<path fill="#FFFFFF" d="M43.196,134.568c-0.631,0-1.25-0.25-1.7-0.7s-0.7-1.07-0.7-1.7s0.25-1.25,0.7-1.689
					c0.89-0.9,2.5-0.9,3.39,0c0.45,0.439,0.71,1.06,0.71,1.689c0,0.641-0.26,1.25-0.71,1.7
					C44.446,134.318,43.826,134.568,43.196,134.568z"/>
			</g>
			<g>
				<path fill="#FFFFFF" d="M48.736,146.898c-0.65-1.15-0.24-2.62,0.909-3.271l0,0c1.149-0.649,2.619-0.239,3.271,0.92l0,0
					c0.649,1.15,0.24,2.62-0.91,3.271l0,0c-0.38,0.21-0.779,0.31-1.18,0.31l0,0C49.986,148.128,49.176,147.688,48.736,146.898z
					 M44.916,140.128c-0.65-1.16-0.24-2.62,0.92-3.27l0,0c1.15-0.65,2.61-0.24,3.26,0.91l0,0c0.66,1.159,0.25,2.62-0.909,3.27l0,0
					c-0.37,0.21-0.779,0.311-1.181,0.311l0,0C46.176,141.348,45.355,140.908,44.916,140.128z"/>
			</g>
			<g>
				<path fill="#FFFFFF" d="M54.645,154.898c-0.641,0-1.25-0.26-1.699-0.7c-0.45-0.45-0.7-1.07-0.7-1.7s0.25-1.25,0.7-1.7
					c0.898-0.89,2.5-0.89,3.39,0c0.45,0.45,0.71,1.07,0.71,1.7s-0.26,1.25-0.71,1.7C55.895,154.638,55.275,154.898,54.645,154.898z"
					/>
			</g>
		</g>
		<g>
			<path fill="#FFFFFF" d="M133.997,144.843h-45c-1.242,0-2.25-1.007-2.25-2.25c0-1.242,1.008-2.25,2.25-2.25h45
				c1.242,0,2.25,1.008,2.25,2.25C136.247,143.836,135.239,144.843,133.997,144.843z"/>
		</g>
		<g>
			<path fill="#FFFFFF" d="M39.634,74.755c-1.242,0-2.25-1.007-2.25-2.25V55.501c0-1.243,1.008-2.25,2.25-2.25h45.869
				c1.242,0,2.25,1.007,2.25,2.25s-1.008,2.25-2.25,2.25H41.884v14.754C41.884,73.748,40.876,74.755,39.634,74.755z"/>
		</g>
		<g>
			<path fill="#C8A4FC" d="M89.676,112.526H53.868c-1.242,0-2.25-1.007-2.25-2.25V71.09c0-1.242,1.008-2.25,2.25-2.25h35.809
				c1.242,0,2.25,1.008,2.25,2.25v39.188C91.926,111.519,90.919,112.526,89.676,112.526z M56.118,108.026h31.309V73.34H56.118
				V108.026z"/>
		</g>
		<g>
			<path fill="#FFFFFF" d="M123.645,112.526H100.07c-1.242,0-2.25-1.007-2.25-2.25s1.008-2.25,2.25-2.25h23.575
				c1.242,0,2.25,1.007,2.25,2.25S124.887,112.526,123.645,112.526z"/>
		</g>
		<g>
			<path fill="#FFFFFF" d="M147.313,86.402h-25.812c-1.242,0-2.25-1.007-2.25-2.25s1.008-2.25,2.25-2.25h25.812
				c1.242,0,2.25,1.007,2.25,2.25S148.555,86.402,147.313,86.402z"/>
		</g>
		<g>
			<path fill="#FFFFFF" d="M176.539,154.748h-22.773c-1.242,0-2.25-1.007-2.25-2.25s1.008-2.25,2.25-2.25h18.925l-1.798-3.192
				c-0.608-1.083-0.226-2.455,0.857-3.064c1.081-0.61,2.454-0.227,3.063,0.857l3.687,6.547c0.392,0.695,0.385,1.549-0.02,2.238
				C178.078,154.324,177.339,154.748,176.539,154.748z"/>
		</g>
	</g>
</g>
</svg>
