<?xml version="1.0" encoding="utf-8"?>
<!-- Generator: Adobe Illustrator 16.0.0, SVG Export Plug-In . SVG Version: 6.00 Build 0)  -->
<!DOCTYPE svg PUBLIC "-//W3C//DTD SVG 1.1//EN" "http://www.w3.org/Graphics/SVG/1.1/DTD/svg11.dtd">
<svg version="1.1" id="Layer_1" xmlns="http://www.w3.org/2000/svg" xmlns:xlink="http://www.w3.org/1999/xlink" x="0px" y="0px"
	 width="1083px" height="994.975px" viewBox="302.782 376.193 1083 994.975" enable-background="new 302.782 376.193 1083 994.975"
	 xml:space="preserve">
<g>
	<g>
		<g>
			<g>
				<g>
					<g>
						<path fill="#627CFF" d="M534.259,402.474c-3.38,0-6.681-1.37-9.07-3.76c-2.38-2.38-3.75-5.69-3.75-9.061
							c0-3.37,1.37-6.68,3.75-9.06c2.392-2.39,5.69-3.76,9.07-3.76c3.37,0,6.68,1.37,9.061,3.76c2.391,2.38,3.75,5.69,3.75,9.06
							c0,3.37-1.359,6.681-3.75,9.061C540.938,401.104,537.629,402.474,534.259,402.474z"/>
					</g>
					<g>
						<path fill="#627CFF" d="M677.479,389.652c0-7.08,5.74-12.82,12.82-12.82l0,0c7.08,0,12.82,5.74,12.82,12.82l0,0
							c0,7.08-5.74,12.82-12.82,12.82l0,0C683.219,402.474,677.479,396.733,677.479,389.652z M638.469,389.652
							c0-7.08,5.74-12.82,12.82-12.82l0,0c7.08,0,12.818,5.74,12.818,12.82l0,0c0,7.08-5.738,12.82-12.818,12.82l0,0
							C644.209,402.474,638.469,396.733,638.469,389.652z M599.459,389.652c0-7.08,5.739-12.82,12.819-12.82l0,0
							c7.079,0,12.819,5.74,12.819,12.82l0,0c0,7.08-5.74,12.82-12.819,12.82l0,0C605.198,402.474,599.459,396.733,599.459,389.652z
							 M560.448,389.652c0-7.08,5.739-12.82,12.819-12.82l0,0c7.08,0,12.82,5.74,12.82,12.82l0,0c0,7.08-5.74,12.82-12.82,12.82l0,0
							C566.188,402.474,560.448,396.733,560.448,389.652z"/>
					</g>
					<g>
						<path fill="#627CFF" d="M729.309,402.474c-3.37,0-6.68-1.37-9.06-3.76c-2.392-2.38-3.761-5.68-3.761-9.061
							c0-3.37,1.369-6.68,3.761-9.06c2.38-2.39,5.688-3.76,9.06-3.76s6.681,1.37,9.061,3.76c2.391,2.38,3.761,5.69,3.761,9.06
							c0,3.38-1.37,6.681-3.761,9.061C735.988,401.104,732.679,402.474,729.309,402.474z"/>
					</g>
				</g>
			</g>
			<g>
				<g>
					<g>
						<path fill="#627CFF" d="M1186.528,444.594c-3.37,0-6.671-1.37-9.061-3.76c-2.391-2.391-3.75-5.69-3.75-9.061
							c0-3.38,1.359-6.68,3.75-9.07c2.39-2.38,5.689-3.75,9.061-3.75c3.38,0,6.681,1.37,9.069,3.75c2.38,2.391,3.75,5.69,3.75,9.07
							c0,3.37-1.37,6.67-3.75,9.061C1193.209,443.224,1189.898,444.594,1186.528,444.594z"/>
					</g>
					<g>
						<path fill="#627CFF" d="M1134.709,431.773c0-7.08,5.739-12.82,12.819-12.82l0,0c7.069,0,12.811,5.74,12.811,12.82l0,0
							c0,7.08-5.74,12.811-12.811,12.811l0,0C1140.448,444.584,1134.709,438.854,1134.709,431.773z M1095.698,431.773
							c0-7.08,5.739-12.82,12.819-12.82l0,0c7.07,0,12.811,5.74,12.811,12.82l0,0c0,7.08-5.739,12.811-12.811,12.811l0,0
							C1101.438,444.584,1095.698,438.854,1095.698,431.773z"/>
					</g>
					<g>
						<path fill="#627CFF" d="M1069.509,444.594c-3.38,0-6.681-1.37-9.07-3.76c-2.38-2.391-3.75-5.69-3.75-9.061
							c0-3.38,1.37-6.68,3.75-9.07c2.392-2.38,5.69-3.75,9.07-3.75c3.37,0,6.67,1.37,9.061,3.75c2.391,2.391,3.75,5.69,3.75,9.07
							c0,3.37-1.359,6.68-3.75,9.061C1076.179,443.224,1072.879,444.594,1069.509,444.594z"/>
					</g>
				</g>
			</g>
			<g>
				<g>
					<g>
						<path fill="#627CFF" d="M315.608,528.823c-3.38,0-6.68-1.37-9.068-3.75c-2.38-2.39-3.75-5.7-3.75-9.069
							c0-3.37,1.37-6.681,3.75-9.061c2.39-2.39,5.688-3.76,9.068-3.76c3.37,0,6.671,1.37,9.062,3.76c2.39,2.38,3.76,5.69,3.76,9.061
							c0,3.38-1.37,6.68-3.76,9.069C322.278,527.453,318.979,528.823,315.608,528.823z"/>
					</g>
					<g>
						<path fill="#627CFF" d="M561.318,516.004c0-7.08,5.739-12.82,12.819-12.82l0,0c7.08,0,12.82,5.74,12.82,12.82l0,0
							c0,7.08-5.74,12.819-12.82,12.819l0,0C567.059,528.823,561.318,523.084,561.318,516.004z M524.389,516.004
							c0-7.08,5.74-12.82,12.82-12.82l0,0c7.08,0,12.819,5.74,12.819,12.82l0,0c0,7.08-5.739,12.819-12.819,12.819l0,0
							C530.129,528.823,524.389,523.084,524.389,516.004z M487.459,516.004c0-7.08,5.739-12.82,12.81-12.82l0,0
							c7.08,0,12.82,5.74,12.82,12.82l0,0c0,7.08-5.74,12.819-12.82,12.819l0,0C493.198,528.823,487.459,523.084,487.459,516.004z
							 M450.519,516.004c0-7.08,5.74-12.82,12.82-12.82l0,0c7.08,0,12.819,5.74,12.819,12.82l0,0c0,7.08-5.739,12.819-12.819,12.819
							l0,0C456.259,528.823,450.519,523.084,450.519,516.004z M413.589,516.004c0-7.08,5.739-12.82,12.819-12.82l0,0
							c7.069,0,12.819,5.74,12.819,12.82l0,0c0,7.08-5.75,12.819-12.819,12.819l0,0
							C419.328,528.823,413.589,523.084,413.589,516.004z M376.658,516.004c0-7.08,5.729-12.82,12.819-12.82l0,0
							c7.07,0,12.812,5.74,12.812,12.82l0,0c0,7.08-5.74,12.819-12.812,12.819l0,0C382.389,528.823,376.658,523.084,376.658,516.004
							z M339.719,516.004c0-7.08,5.74-12.82,12.82-12.82l0,0c7.079,0,12.818,5.74,12.818,12.82l0,0
							c0,7.08-5.739,12.819-12.818,12.819l0,0C345.459,528.823,339.719,523.084,339.719,516.004z"/>
					</g>
					<g>
						<path fill="#627CFF" d="M611.078,528.823c-3.38,0-6.681-1.37-9.069-3.76c-2.38-2.38-3.75-5.68-3.75-9.06
							c0-3.37,1.37-6.671,3.75-9.061c2.39-2.39,5.689-3.76,9.069-3.76c3.37,0,6.671,1.37,9.061,3.76
							c2.391,2.38,3.75,5.69,3.75,9.061c0,3.38-1.359,6.68-3.75,9.06C617.749,527.453,614.448,528.823,611.078,528.823z"/>
					</g>
				</g>
				<g>
					<g>
						<path fill="#627CFF" d="M963.688,528.823c-3.369,0-6.68-1.37-9.06-3.75c-2.391-2.39-3.761-5.689-3.761-9.069
							c0-3.37,1.37-6.681,3.761-9.061c2.38-2.39,5.689-3.76,9.06-3.76s6.681,1.37,9.062,3.76c2.39,2.38,3.76,5.69,3.76,9.061
							c0,3.38-1.37,6.68-3.76,9.069C970.369,527.453,967.059,528.823,963.688,528.823z"/>
					</g>
					<g>
						<path fill="#627CFF" d="M1136.568,516.004c0-7.08,5.739-12.82,12.819-12.82l0,0c7.08,0,12.819,5.74,12.819,12.82l0,0
							c0,7.08-5.739,12.819-12.819,12.819l0,0C1142.309,528.823,1136.568,523.084,1136.568,516.004z M1099.429,516.004
							c0-7.08,5.74-12.82,12.819-12.82l0,0c7.08,0,12.82,5.74,12.82,12.82l0,0c0,7.08-5.74,12.819-12.82,12.819l0,0
							C1105.169,528.823,1099.429,523.084,1099.429,516.004z M1062.289,516.004c0-7.08,5.739-12.82,12.818-12.82l0,0
							c7.08,0,12.82,5.74,12.82,12.82l0,0c0,7.08-5.74,12.819-12.82,12.819l0,0C1068.028,528.823,1062.289,523.084,1062.289,516.004
							z M1025.148,516.004c0-7.08,5.74-12.82,12.82-12.82l0,0c7.08,0,12.82,5.74,12.82,12.82l0,0c0,7.08-5.74,12.819-12.82,12.819
							l0,0C1030.889,528.823,1025.148,523.084,1025.148,516.004z M988.009,516.004c0-7.08,5.74-12.82,12.819-12.82l0,0
							c7.08,0,12.819,5.74,12.819,12.82l0,0c0,7.08-5.739,12.819-12.819,12.819l0,0
							C993.749,528.823,988.009,523.084,988.009,516.004z"/>
					</g>
					<g>
						<path fill="#627CFF" d="M1186.528,528.823c-3.37,0-6.671-1.37-9.061-3.75c-2.391-2.39-3.75-5.7-3.75-9.069
							c0-3.37,1.359-6.681,3.75-9.061c2.39-2.39,5.689-3.76,9.061-3.76c3.369,0,6.681,1.37,9.069,3.76
							c2.38,2.38,3.75,5.69,3.75,9.061c0,3.369-1.37,6.68-3.75,9.069C1193.209,527.453,1189.898,528.823,1186.528,528.823z"/>
					</g>
				</g>
			</g>
			<g>
				<g>
					<g>
						<path fill="#627CFF" d="M534.259,486.703c-3.38,0-6.681-1.369-9.07-3.75c-2.38-2.39-3.75-5.689-3.75-9.069
							c0-3.37,1.37-6.67,3.75-9.061c2.392-2.38,5.69-3.75,9.07-3.75c3.37,0,6.68,1.37,9.061,3.75c2.391,2.391,3.75,5.69,3.75,9.061
							c0,3.38-1.359,6.68-3.75,9.069C540.938,485.334,537.629,486.703,534.259,486.703z"/>
					</g>
					<g>
						<path fill="#627CFF" d="M979.568,473.894c0-7.09,5.739-12.82,12.819-12.82l0,0c7.07,0,12.811,5.73,12.811,12.82l0,0
							c0,7.07-5.739,12.81-12.811,12.81l0,0C985.309,486.703,979.568,480.964,979.568,473.894z M941.389,473.894
							c0-7.09,5.74-12.82,12.82-12.82l0,0c7.08,0,12.81,5.73,12.81,12.82l0,0c0,7.07-5.729,12.81-12.81,12.81l0,0
							C947.129,486.703,941.389,480.964,941.389,473.894z M903.209,473.894c0-7.09,5.739-12.82,12.819-12.82l0,0
							c7.079,0,12.819,5.73,12.819,12.82l0,0c0,7.07-5.74,12.81-12.819,12.81l0,0C908.948,486.703,903.209,480.964,903.209,473.894z
							 M865.028,473.894c0-7.09,5.739-12.82,12.819-12.82l0,0c7.08,0,12.82,5.73,12.82,12.82l0,0c0,7.07-5.74,12.81-12.82,12.81l0,0
							C870.769,486.703,865.028,480.964,865.028,473.894z M826.858,473.894c0-7.09,5.74-12.82,12.82-12.82l0,0
							c7.07,0,12.811,5.73,12.811,12.82l0,0c0,7.07-5.739,12.81-12.811,12.81l0,0C832.599,486.703,826.858,480.964,826.858,473.894z
							 M788.679,473.894c0-7.09,5.74-12.82,12.82-12.82l0,0c7.08,0,12.819,5.73,12.819,12.82l0,0c0,7.07-5.739,12.81-12.819,12.81
							l0,0C794.419,486.703,788.679,480.964,788.679,473.894z M750.499,473.894c0-7.09,5.739-12.82,12.819-12.82l0,0
							c7.079,0,12.819,5.73,12.819,12.82l0,0c0,7.07-5.74,12.81-12.819,12.81l0,0C756.238,486.703,750.499,480.964,750.499,473.894z
							 M712.328,473.894c0-7.09,5.74-12.82,12.811-12.82l0,0c7.08,0,12.82,5.73,12.82,12.82l0,0c0,7.07-5.74,12.81-12.82,12.81l0,0
							C718.068,486.703,712.328,480.964,712.328,473.894z M674.148,473.894c0-7.09,5.74-12.82,12.82-12.82l0,0
							c7.07,0,12.811,5.73,12.811,12.82l0,0c0,7.07-5.739,12.81-12.811,12.81l0,0C679.889,486.703,674.148,480.964,674.148,473.894z
							 M635.969,473.894c0-7.09,5.74-12.82,12.82-12.82l0,0c7.08,0,12.818,5.73,12.818,12.82l0,0c0,7.07-5.738,12.81-12.818,12.81
							l0,0C641.709,486.703,635.969,480.964,635.969,473.894z M597.789,473.894c0-7.09,5.739-12.82,12.818-12.82l0,0
							c7.08,0,12.82,5.73,12.82,12.82l0,0c0,7.07-5.74,12.81-12.82,12.81l0,0C603.528,486.703,597.789,480.964,597.789,473.894z
							 M559.619,473.894c0-7.09,5.738-12.82,12.818-12.82l0,0c7.07,0,12.812,5.73,12.812,12.82l0,0c0,7.07-5.74,12.81-12.812,12.81
							l0,0C565.358,486.703,559.619,480.964,559.619,473.894z"/>
					</g>
					<g>
						<path fill="#627CFF" d="M1030.559,486.703c-3.37,0-6.68-1.369-9.06-3.75c-2.392-2.39-3.761-5.689-3.761-9.069
							c0-3.37,1.369-6.67,3.761-9.061c2.39-2.39,5.688-3.75,9.06-3.75s6.681,1.36,9.07,3.75c2.38,2.391,3.75,5.69,3.75,9.061
							c0,3.38-1.37,6.68-3.75,9.069C1037.238,485.334,1033.938,486.703,1030.559,486.703z"/>
					</g>
				</g>
			</g>
			<g>
				<g>
					<g>
						<path fill="#627CFF" d="M424.929,570.942c-3.37,0-6.68-1.37-9.061-3.76c-2.391-2.38-3.761-5.69-3.761-9.061
							c0-3.369,1.37-6.68,3.761-9.06c2.381-2.39,5.689-3.76,9.061-3.76c3.38,0,6.68,1.37,9.07,3.76c2.38,2.38,3.75,5.68,3.75,9.06
							c0,3.37-1.37,6.681-3.75,9.061C431.608,569.573,428.309,570.942,424.929,570.942z"/>
					</g>
					<g>
						<path fill="#627CFF" d="M716.499,558.123c0-7.079,5.739-12.819,12.819-12.819l0,0c7.079,0,12.819,5.74,12.819,12.819l0,0
							c0,7.08-5.74,12.811-12.819,12.811l0,0C722.238,570.934,716.499,565.203,716.499,558.123z M678.459,558.123
							c0-7.079,5.729-12.819,12.81-12.819l0,0c7.08,0,12.82,5.74,12.82,12.819l0,0c0,7.08-5.74,12.811-12.82,12.811l0,0
							C684.188,570.934,678.459,565.203,678.459,558.123z M640.408,558.123c0-7.079,5.729-12.819,12.819-12.819l0,0
							c7.07,0,12.812,5.74,12.812,12.819l0,0c0,7.08-5.74,12.811-12.812,12.811l0,0
							C646.139,570.934,640.408,565.203,640.408,558.123z M602.358,558.123c0-7.079,5.74-12.819,12.82-12.819l0,0
							c7.07,0,12.811,5.74,12.811,12.819l0,0c0,7.08-5.739,12.811-12.811,12.811l0,0
							C608.099,570.934,602.358,565.203,602.358,558.123z M564.309,558.123c0-7.079,5.74-12.819,12.82-12.819l0,0
							c7.069,0,12.81,5.74,12.81,12.819l0,0c0,7.08-5.739,12.811-12.81,12.811l0,0C570.049,570.934,564.309,565.203,564.309,558.123
							z M526.259,558.123c0-7.079,5.74-12.819,12.819-12.819l0,0c7.08,0,12.819,5.74,12.819,12.819l0,0
							c0,7.08-5.739,12.811-12.819,12.811l0,0C531.999,570.934,526.259,565.203,526.259,558.123z M488.209,558.123
							c0-7.079,5.739-12.819,12.819-12.819l0,0c7.079,0,12.819,5.74,12.819,12.819l0,0c0,7.08-5.74,12.811-12.819,12.811l0,0
							C493.948,570.934,488.209,565.203,488.209,558.123z M450.158,558.123c0-7.079,5.739-12.819,12.819-12.819l0,0
							c7.08,0,12.82,5.74,12.82,12.819l0,0c0,7.08-5.74,12.811-12.82,12.811l0,0C455.898,570.934,450.158,565.203,450.158,558.123z"
							/>
					</g>
					<g>
						<path fill="#627CFF" d="M767.369,570.934c-3.37,0-6.682-1.36-9.062-3.75c-2.39-2.38-3.76-5.69-3.76-9.061
							c0-3.369,1.37-6.68,3.76-9.06c2.38-2.39,5.69-3.76,9.062-3.76c3.38,0,6.68,1.37,9.06,3.76c2.391,2.38,3.76,5.68,3.76,9.06
							c0,3.37-1.369,6.681-3.76,9.061C774.049,569.573,770.749,570.934,767.369,570.934z"/>
					</g>
				</g>
			</g>
			<g>
				<g>
					<g>
						<path fill="#627CFF" d="M1273.988,613.054c-3.369,0-6.681-1.37-9.061-3.75c-2.391-2.391-3.75-5.69-3.75-9.061
							c0-3.38,1.359-6.68,3.75-9.069c2.39-2.38,5.689-3.75,9.061-3.75c3.369,0,6.681,1.37,9.069,3.75
							c2.38,2.39,3.75,5.689,3.75,9.069c0,3.37-1.37,6.67-3.75,9.061C1280.669,611.684,1277.369,613.054,1273.988,613.054z"/>
					</g>
					<g>
						<path fill="#627CFF" d="M1224.249,600.233c0-7.07,5.739-12.81,12.818-12.81l0,0c7.08,0,12.82,5.739,12.82,12.81l0,0
							c0,7.08-5.74,12.82-12.82,12.82l0,0C1229.988,613.054,1224.249,607.313,1224.249,600.233z M1187.328,600.233
							c0-7.07,5.739-12.81,12.811-12.81l0,0c7.08,0,12.82,5.739,12.82,12.81l0,0c0,7.08-5.74,12.82-12.82,12.82l0,0
							C1193.067,613.054,1187.328,607.313,1187.328,600.233z M1150.398,600.233c0-7.07,5.74-12.81,12.82-12.81l0,0
							c7.08,0,12.82,5.739,12.82,12.81l0,0c0,7.08-5.74,12.82-12.82,12.82l0,0C1156.139,613.054,1150.398,607.313,1150.398,600.233z
							 M1113.479,600.233c0-7.07,5.74-12.81,12.82-12.81l0,0c7.069,0,12.81,5.739,12.81,12.81l0,0c0,7.08-5.739,12.82-12.81,12.82
							l0,0C1119.219,613.054,1113.479,607.313,1113.479,600.233z M1076.559,600.233c0-7.07,5.73-12.81,12.811-12.81l0,0
							c7.08,0,12.819,5.739,12.819,12.81l0,0c0,7.08-5.739,12.82-12.819,12.82l0,0
							C1082.289,613.054,1076.559,607.313,1076.559,600.233z M1039.629,600.233c0-7.07,5.74-12.81,12.819-12.81l0,0
							c7.08,0,12.819,5.739,12.819,12.81l0,0c0,7.08-5.739,12.82-12.819,12.82l0,0
							C1045.369,613.054,1039.629,607.313,1039.629,600.233z M1002.709,600.233c0-7.07,5.729-12.81,12.81-12.81l0,0
							c7.08,0,12.82,5.739,12.82,12.81l0,0c0,7.08-5.74,12.82-12.82,12.82l0,0C1008.438,613.054,1002.709,607.313,1002.709,600.233z
							 M965.778,600.233c0-7.07,5.739-12.81,12.819-12.81l0,0c7.08,0,12.82,5.739,12.82,12.81l0,0c0,7.08-5.74,12.82-12.82,12.82
							l0,0C971.519,613.054,965.778,607.313,965.778,600.233z M928.858,600.233c0-7.07,5.74-12.81,12.82-12.81l0,0
							c7.07,0,12.811,5.739,12.811,12.81l0,0c0,7.08-5.739,12.82-12.811,12.82l0,0C934.599,613.054,928.858,607.313,928.858,600.233
							z M891.929,600.233c0-7.07,5.74-12.81,12.82-12.81l0,0c7.08,0,12.819,5.739,12.819,12.81l0,0c0,7.08-5.739,12.82-12.819,12.82
							l0,0C897.669,613.054,891.929,607.313,891.929,600.233z M855.009,600.233c0-7.07,5.74-12.81,12.819-12.81l0,0
							c7.08,0,12.811,5.739,12.811,12.81l0,0c0,7.08-5.729,12.82-12.811,12.82l0,0C860.749,613.054,855.009,607.313,855.009,600.233
							z M818.089,600.233c0-7.07,5.739-12.81,12.819-12.81l0,0c7.069,0,12.811,5.739,12.811,12.81l0,0
							c0,7.08-5.74,12.82-12.811,12.82l0,0C823.828,613.054,818.089,607.313,818.089,600.233z M781.158,600.233
							c0-7.07,5.739-12.81,12.819-12.81l0,0c7.08,0,12.82,5.739,12.82,12.81l0,0c0,7.08-5.74,12.82-12.82,12.82l0,0
							C786.898,613.054,781.158,607.313,781.158,600.233z"/>
					</g>
					<g>
						<path fill="#627CFF" d="M757.059,613.054c-3.38,0-6.68-1.37-9.069-3.75c-2.381-2.391-3.75-5.69-3.75-9.061
							c0-3.38,1.369-6.68,3.75-9.069c2.391-2.38,5.689-3.75,9.069-3.75c3.37,0,6.67,1.37,9.061,3.75
							c2.391,2.39,3.761,5.689,3.761,9.069c0,3.37-1.37,6.67-3.761,9.061C763.729,611.684,760.429,613.054,757.059,613.054z"/>
					</g>
				</g>
			</g>
			<g>
				<g>
					<g>
						<path fill="#627CFF" d="M588.919,655.173c-3.37,0-6.681-1.37-9.062-3.75c-2.39-2.391-3.76-5.69-3.76-9.07
							c0-3.37,1.37-6.68,3.76-9.06c2.392-2.391,5.69-3.761,9.062-3.761s6.68,1.37,9.06,3.761c2.391,2.39,3.761,5.689,3.761,9.06
							c0,3.38-1.37,6.68-3.761,9.07C595.599,653.804,592.299,655.173,588.919,655.173z"/>
					</g>
					<g>
						<path fill="#627CFF" d="M742.188,642.354c0-7.08,5.74-12.82,12.812-12.82l0,0c7.08,0,12.819,5.74,12.819,12.82l0,0
							c0,7.08-5.739,12.82-12.819,12.82l0,0C747.929,655.173,742.188,649.434,742.188,642.354z M700.658,642.354
							c0-7.08,5.739-12.82,12.819-12.82l0,0c7.08,0,12.82,5.74,12.82,12.82l0,0c0,7.08-5.74,12.82-12.82,12.82l0,0
							C706.398,655.173,700.658,649.434,700.658,642.354z M659.139,642.354c0-7.08,5.74-12.82,12.82-12.82l0,0
							c7.08,0,12.819,5.74,12.819,12.82l0,0c0,7.08-5.739,12.82-12.819,12.82l0,0C664.879,655.173,659.139,649.434,659.139,642.354z
							 M617.619,642.354c0-7.08,5.738-12.82,12.818-12.82l0,0c7.08,0,12.82,5.74,12.82,12.82l0,0c0,7.08-5.74,12.82-12.82,12.82l0,0
							C623.358,655.173,617.619,649.434,617.619,642.354z"/>
					</g>
					<g>
						<path fill="#627CFF" d="M796.519,655.173c-3.37,0-6.67-1.37-9.06-3.75c-2.381-2.391-3.75-5.69-3.75-9.07
							c0-3.37,1.369-6.67,3.75-9.06c2.39-2.391,5.688-3.75,9.06-3.75c3.38,0,6.681,1.359,9.07,3.75c2.38,2.38,3.75,5.689,3.75,9.06
							c0,3.38-1.37,6.68-3.75,9.07C803.198,653.804,799.898,655.173,796.519,655.173z"/>
					</g>
				</g>
			</g>
			<g>
				<g>
					<g>
						<path fill="#627CFF" d="M1186.528,781.523c-3.37,0-6.671-1.37-9.061-3.75c-2.391-2.39-3.75-5.689-3.75-9.07
							c0-3.369,1.359-6.67,3.75-9.06c2.39-2.38,5.689-3.75,9.061-3.75c3.369,0,6.681,1.37,9.069,3.75c2.38,2.39,3.75,5.69,3.75,9.06
							c0,3.381-1.37,6.681-3.75,9.07C1193.209,780.152,1189.908,781.523,1186.528,781.523z"/>
					</g>
					<g>
						<path fill="#627CFF" d="M1134.709,768.703c0-7.069,5.739-12.81,12.819-12.81l0,0c7.069,0,12.811,5.74,12.811,12.81l0,0
							c0,7.08-5.74,12.82-12.811,12.82l0,0C1140.448,781.523,1134.709,775.783,1134.709,768.703z M1095.698,768.703
							c0-7.069,5.739-12.81,12.819-12.81l0,0c7.07,0,12.811,5.74,12.811,12.81l0,0c0,7.08-5.739,12.82-12.811,12.82l0,0
							C1101.438,781.523,1095.698,775.783,1095.698,768.703z"/>
					</g>
					<g>
						<path fill="#627CFF" d="M1069.509,781.523c-3.38,0-6.681-1.37-9.07-3.75c-2.38-2.39-3.75-5.689-3.75-9.07
							c0-3.369,1.37-6.67,3.75-9.06c2.392-2.38,5.69-3.75,9.07-3.75c3.37,0,6.67,1.37,9.061,3.75c2.391,2.39,3.75,5.69,3.75,9.06
							c0,3.381-1.359,6.681-3.75,9.07C1076.179,780.152,1072.879,781.523,1069.509,781.523z"/>
					</g>
				</g>
			</g>
			<g>
				<g>
					<g>
						<path fill="#627CFF" d="M534.259,697.294c-3.38,0-6.681-1.37-9.07-3.761c-2.38-2.38-3.75-5.68-3.75-9.06
							c0-3.37,1.37-6.68,3.75-9.061c2.392-2.39,5.7-3.76,9.07-3.76s6.68,1.37,9.061,3.76c2.391,2.381,3.75,5.69,3.75,9.061
							c0,3.38-1.359,6.68-3.75,9.06C540.938,695.923,537.629,697.294,534.259,697.294z"/>
					</g>
					<g>
						<path fill="#627CFF" d="M559.849,684.474c0-7.08,5.74-12.82,12.82-12.82l0,0c7.08,0,12.819,5.74,12.819,12.82l0,0
							c0,7.08-5.739,12.82-12.819,12.82l0,0C565.589,697.294,559.849,691.554,559.849,684.474z"/>
					</g>
					<g>
						<path fill="#627CFF" d="M611.078,697.294c-3.38,0-6.681-1.37-9.069-3.761c-2.38-2.38-3.75-5.689-3.75-9.06
							s1.37-6.67,3.75-9.061c2.39-2.39,5.689-3.76,9.069-3.76c3.37,0,6.671,1.37,9.061,3.76c2.391,2.381,3.75,5.69,3.75,9.061
							s-1.359,6.68-3.75,9.06C617.749,695.923,614.448,697.294,611.078,697.294z"/>
					</g>
				</g>
				<g>
					<g>
						<path fill="#627CFF" d="M963.688,697.294c-3.369,0-6.68-1.37-9.06-3.761c-2.391-2.38-3.761-5.689-3.761-9.06
							s1.37-6.68,3.761-9.061c2.38-2.39,5.689-3.76,9.06-3.76s6.681,1.37,9.062,3.76c2.39,2.381,3.76,5.69,3.76,9.061
							c0,3.38-1.37,6.68-3.76,9.06C970.369,695.923,967.059,697.294,963.688,697.294z"/>
					</g>
					<g>
						<path fill="#627CFF" d="M1322.419,684.474c0-7.08,5.729-12.82,12.81-12.82l0,0c7.08,0,12.82,5.74,12.82,12.82l0,0
							c0,7.08-5.74,12.82-12.82,12.82l0,0C1328.148,697.294,1322.419,691.554,1322.419,684.474z M1285.259,684.474
							c0-7.08,5.74-12.82,12.819-12.82l0,0c7.08,0,12.819,5.74,12.819,12.82l0,0c0,7.08-5.739,12.82-12.819,12.82l0,0
							C1290.999,697.294,1285.259,691.554,1285.259,684.474z M1248.099,684.474c0-7.08,5.74-12.82,12.83-12.82l0,0
							c7.069,0,12.811,5.74,12.811,12.82l0,0c0,7.08-5.739,12.82-12.811,12.82l0,0
							C1253.839,697.294,1248.099,691.554,1248.099,684.474z M1210.948,684.474c0-7.08,5.739-12.82,12.819-12.82l0,0
							c7.08,0,12.82,5.74,12.82,12.82l0,0c0,7.08-5.74,12.82-12.82,12.82l0,0C1216.688,697.294,1210.948,691.554,1210.948,684.474z
							 M1173.799,684.474c0-7.08,5.74-12.82,12.81-12.82l0,0c7.08,0,12.82,5.74,12.82,12.82l0,0c0,7.08-5.74,12.82-12.82,12.82l0,0
							C1179.539,697.294,1173.799,691.554,1173.799,684.474z M1136.639,684.474c0-7.08,5.74-12.82,12.82-12.82l0,0
							c7.08,0,12.819,5.74,12.819,12.82l0,0c0,7.08-5.739,12.82-12.819,12.82l0,0
							C1142.379,697.294,1136.639,691.554,1136.639,684.474z M1099.488,684.474c0-7.08,5.739-12.82,12.819-12.82l0,0
							c7.07,0,12.812,5.74,12.812,12.82l0,0c0,7.08-5.74,12.82-12.812,12.82l0,0
							C1105.229,697.294,1099.488,691.554,1099.488,684.474z M1062.328,684.474c0-7.08,5.74-12.82,12.819-12.82l0,0
							c7.08,0,12.82,5.74,12.82,12.82l0,0c0,7.08-5.74,12.82-12.82,12.82l0,0C1068.068,697.294,1062.328,691.554,1062.328,684.474z
							 M1025.179,684.474c0-7.08,5.74-12.82,12.819-12.82l0,0c7.08,0,12.82,5.74,12.82,12.82l0,0c0,7.08-5.74,12.82-12.82,12.82l0,0
							C1030.919,697.294,1025.179,691.554,1025.179,684.474z M988.028,684.474c0-7.08,5.739-12.82,12.811-12.82l0,0
							c7.08,0,12.819,5.74,12.819,12.82l0,0c0,7.08-5.739,12.82-12.819,12.82l0,0C993.769,697.294,988.028,691.554,988.028,684.474z
							"/>
					</g>
					<g>
						<path fill="#627CFF" d="M1372.389,697.294c-3.38,0-6.68-1.37-9.07-3.761c-2.38-2.38-3.75-5.689-3.75-9.06
							s1.37-6.68,3.75-9.061c2.392-2.39,5.69-3.76,9.07-3.76c3.37,0,6.68,1.37,9.061,3.76c2.391,2.381,3.761,5.69,3.761,9.061
							s-1.37,6.68-3.761,9.06C1379.059,695.923,1375.759,697.294,1372.389,697.294z"/>
					</g>
				</g>
			</g>
			<g>
				<g>
					<g>
						<path fill="#627CFF" d="M424.929,739.402c-3.37,0-6.68-1.359-9.061-3.75c-2.391-2.38-3.761-5.689-3.761-9.06
							c0-3.38,1.37-6.681,3.761-9.07c2.391-2.38,5.689-3.75,9.061-3.75s6.68,1.37,9.07,3.75c2.38,2.39,3.75,5.69,3.75,9.07
							c0,3.37-1.37,6.68-3.75,9.06C431.608,738.044,428.309,739.402,424.929,739.402z"/>
					</g>
					<g>
						<path fill="#627CFF" d="M706.429,726.594c0-7.08,5.74-12.82,12.82-12.82l0,0c7.069,0,12.81,5.74,12.81,12.82l0,0
							c0,7.08-5.739,12.819-12.81,12.819l0,0C712.169,739.413,706.429,733.673,706.429,726.594z M669.639,726.594
							c0-7.08,5.74-12.82,12.82-12.82l0,0c7.069,0,12.81,5.74,12.81,12.82l0,0c0,7.08-5.739,12.819-12.81,12.819l0,0
							C675.379,739.413,669.639,733.673,669.639,726.594z M632.849,726.594c0-7.08,5.74-12.82,12.82-12.82l0,0
							c7.069,0,12.81,5.74,12.81,12.82l0,0c0,7.08-5.739,12.819-12.81,12.819l0,0C638.589,739.413,632.849,733.673,632.849,726.594z
							 M596.059,726.594c0-7.08,5.74-12.82,12.82-12.82l0,0c7.08,0,12.819,5.74,12.819,12.82l0,0c0,7.08-5.739,12.819-12.819,12.819
							l0,0C601.799,739.413,596.059,733.673,596.059,726.594z M559.269,726.594c0-7.08,5.74-12.82,12.82-12.82l0,0
							c7.08,0,12.819,5.74,12.819,12.82l0,0c0,7.08-5.739,12.819-12.819,12.819l0,0
							C565.009,739.413,559.269,733.673,559.269,726.594z M522.479,726.594c0-7.08,5.74-12.82,12.82-12.82l0,0
							c7.08,0,12.82,5.74,12.82,12.82l0,0c0,7.08-5.74,12.819-12.82,12.819l0,0C528.219,739.413,522.479,733.673,522.479,726.594z
							 M485.688,726.594c0-7.08,5.74-12.82,12.82-12.82l0,0c7.08,0,12.82,5.74,12.82,12.82l0,0c0,7.08-5.74,12.819-12.82,12.819l0,0
							C491.429,739.413,485.688,733.673,485.688,726.594z M448.898,726.594c0-7.08,5.74-12.82,12.82-12.82l0,0
							c7.08,0,12.82,5.74,12.82,12.82l0,0c0,7.08-5.74,12.819-12.82,12.819l0,0C454.639,739.413,448.898,733.673,448.898,726.594z"
							/>
					</g>
					<g>
						<path fill="#627CFF" d="M756.039,739.413c-3.381,0-6.682-1.369-9.07-3.76c-2.391-2.38-3.75-5.689-3.75-9.06
							c0-3.38,1.359-6.681,3.75-9.07c2.39-2.38,5.689-3.75,9.07-3.75c3.369,0,6.67,1.37,9.06,3.75c2.38,2.39,3.75,5.69,3.75,9.07
							c0,3.37-1.37,6.68-3.75,9.06C762.709,738.044,759.408,739.413,756.039,739.413z"/>
					</g>
				</g>
				<g>
					<g>
						<path fill="#627CFF" d="M994.019,739.402c-3.38,0-6.68-1.359-9.069-3.75c-2.391-2.39-3.75-5.689-3.75-9.06
							s1.359-6.681,3.75-9.061c2.391-2.39,5.689-3.76,9.069-3.76c3.37,0,6.67,1.37,9.061,3.76c2.381,2.38,3.75,5.681,3.75,9.061
							c0,3.37-1.369,6.68-3.75,9.06C1000.688,738.044,997.389,739.402,994.019,739.402z"/>
					</g>
					<g>
						<path fill="#627CFF" d="M1268.938,726.594c0-7.08,5.74-12.82,12.82-12.82l0,0c7.069,0,12.81,5.74,12.81,12.82l0,0
							c0,7.08-5.738,12.81-12.81,12.81l0,0C1274.679,739.402,1268.938,733.673,1268.938,726.594z M1232.969,726.594
							c0-7.08,5.74-12.82,12.82-12.82l0,0c7.079,0,12.818,5.74,12.818,12.82l0,0c0,7.08-5.739,12.81-12.818,12.81l0,0
							C1238.709,739.402,1232.969,733.673,1232.969,726.594z M1196.999,726.594c0-7.08,5.739-12.82,12.818-12.82l0,0
							c7.08,0,12.82,5.74,12.82,12.82l0,0c0,7.08-5.74,12.81-12.82,12.81l0,0C1202.738,739.402,1196.999,733.673,1196.999,726.594z
							 M1161.028,726.594c0-7.08,5.739-12.82,12.819-12.82l0,0c7.08,0,12.82,5.74,12.82,12.82l0,0c0,7.08-5.74,12.81-12.82,12.81
							l0,0C1166.769,739.402,1161.028,733.673,1161.028,726.594z M1125.068,726.594c0-7.08,5.739-12.82,12.811-12.82l0,0
							c7.08,0,12.819,5.74,12.819,12.82l0,0c0,7.08-5.739,12.81-12.819,12.81l0,0
							C1130.809,739.402,1125.068,733.673,1125.068,726.594z M1089.099,726.594c0-7.08,5.74-12.82,12.82-12.82l0,0
							c7.069,0,12.81,5.74,12.81,12.82l0,0c0,7.08-5.739,12.81-12.81,12.81l0,0C1094.839,739.402,1089.099,733.673,1089.099,726.594
							z M1053.129,726.594c0-7.08,5.74-12.82,12.819-12.82l0,0c7.08,0,12.819,5.74,12.819,12.82l0,0
							c0,7.08-5.739,12.81-12.819,12.81l0,0C1058.869,739.402,1053.129,733.673,1053.129,726.594z M1017.158,726.594
							c0-7.08,5.739-12.82,12.819-12.82l0,0c7.08,0,12.82,5.74,12.82,12.82l0,0c0,7.08-5.74,12.81-12.82,12.81l0,0
							C1022.898,739.402,1017.158,733.673,1017.158,726.594z"/>
					</g>
					<g>
						<path fill="#627CFF" d="M1317.719,739.402c-3.37,0-6.68-1.359-9.061-3.75c-2.391-2.39-3.75-5.689-3.75-9.06
							c0-3.38,1.359-6.681,3.75-9.07c2.391-2.38,5.689-3.75,9.061-3.75c3.38,0,6.68,1.37,9.07,3.75c2.38,2.39,3.75,5.69,3.75,9.07
							c0,3.37-1.37,6.68-3.75,9.06C1324.398,738.044,1321.099,739.402,1317.719,739.402z"/>
					</g>
				</g>
			</g>
			<g>
				<g>
					<g>
						<path fill="#627CFF" d="M392.139,823.644c-3.38,0-6.68-1.37-9.069-3.76c-2.381-2.38-3.75-5.681-3.75-9.061
							c0-3.37,1.369-6.68,3.75-9.06c2.391-2.391,5.689-3.76,9.069-3.76c3.37,0,6.67,1.369,9.061,3.76
							c2.381,2.39,3.75,5.689,3.75,9.06c0,3.38-1.369,6.681-3.75,9.061C398.809,822.273,395.509,823.644,392.139,823.644z"/>
					</g>
					<g>
						<path fill="#627CFF" d="M717.028,810.823c0-7.08,5.739-12.819,12.819-12.819l0,0c7.08,0,12.82,5.739,12.82,12.819l0,0
							c0,7.08-5.74,12.82-12.82,12.82l0,0C722.769,823.644,717.028,817.902,717.028,810.823z M679.509,810.823
							c0-7.08,5.729-12.819,12.811-12.819l0,0c7.079,0,12.819,5.739,12.819,12.819l0,0c0,7.08-5.74,12.82-12.819,12.82l0,0
							C685.238,823.644,679.509,817.902,679.509,810.823z M641.979,810.823c0-7.08,5.74-12.819,12.82-12.819l0,0
							c7.08,0,12.82,5.739,12.82,12.819l0,0c0,7.08-5.74,12.82-12.82,12.82l0,0C647.719,823.644,641.979,817.902,641.979,810.823z
							 M604.459,810.823c0-7.08,5.739-12.819,12.819-12.819l0,0c7.069,0,12.811,5.739,12.811,12.819l0,0
							c0,7.08-5.74,12.82-12.811,12.82l0,0C610.198,823.644,604.459,817.902,604.459,810.823z M566.929,810.823
							c0-7.08,5.74-12.819,12.82-12.819l0,0c7.08,0,12.819,5.739,12.819,12.819l0,0c0,7.08-5.739,12.82-12.819,12.82l0,0
							C572.669,823.644,566.929,817.902,566.929,810.823z M529.408,810.823c0-7.08,5.739-12.819,12.819-12.819l0,0
							c7.08,0,12.82,5.739,12.82,12.819l0,0c0,7.08-5.74,12.82-12.82,12.82l0,0C535.148,823.644,529.408,817.902,529.408,810.823z
							 M491.889,810.823c0-7.08,5.74-12.819,12.811-12.819l0,0c7.08,0,12.819,5.739,12.819,12.819l0,0
							c0,7.08-5.739,12.82-12.819,12.82l0,0C497.629,823.644,491.889,817.902,491.889,810.823z M454.358,810.823
							c0-7.08,5.74-12.819,12.82-12.819l0,0c7.08,0,12.82,5.739,12.82,12.819l0,0c0,7.08-5.74,12.82-12.82,12.82l0,0
							C460.099,823.644,454.358,817.902,454.358,810.823z M416.839,810.823c0-7.08,5.739-12.819,12.819-12.819l0,0
							c7.08,0,12.819,5.739,12.819,12.819l0,0c0,7.08-5.739,12.82-12.819,12.82l0,0
							C422.578,823.644,416.839,817.902,416.839,810.823z"/>
					</g>
					<g>
						<path fill="#627CFF" d="M767.369,823.644c-3.37,0-6.682-1.37-9.062-3.76c-2.39-2.38-3.76-5.681-3.76-9.061
							c0-3.37,1.37-6.67,3.76-9.06c2.38-2.391,5.69-3.75,9.062-3.75c3.38,0,6.68,1.359,9.06,3.75c2.391,2.38,3.76,5.689,3.76,9.06
							c0,3.38-1.369,6.681-3.76,9.061C774.049,822.273,770.749,823.644,767.369,823.644z"/>
					</g>
				</g>
			</g>
			<g>
				<g>
					<g>
						<path fill="#627CFF" d="M1088.139,865.764c-3.37,0-6.68-1.37-9.061-3.76c-2.391-2.381-3.76-5.69-3.76-9.061
							s1.369-6.68,3.75-9.07c2.391-2.38,5.699-3.75,9.069-3.75s6.681,1.37,9.061,3.75c2.391,2.391,3.761,5.69,3.761,9.07
							s-1.37,6.68-3.761,9.061C1094.818,864.394,1091.519,865.764,1088.139,865.764z"/>
					</g>
					<g>
						<path fill="#627CFF" d="M1036.278,852.942c0-7.08,5.739-12.82,12.819-12.82l0,0c7.08,0,12.82,5.74,12.82,12.82l0,0
							c0,7.08-5.74,12.82-12.82,12.82l0,0C1042.019,865.764,1036.278,860.023,1036.278,852.942z M997.238,852.942
							c0-7.08,5.729-12.82,12.811-12.82l0,0c7.08,0,12.82,5.74,12.82,12.82l0,0c0,7.08-5.74,12.82-12.82,12.82l0,0
							C1002.969,865.764,997.238,860.023,997.238,852.942z M958.188,852.942c0-7.08,5.74-12.82,12.82-12.82l0,0
							c7.08,0,12.819,5.74,12.819,12.82l0,0c0,7.08-5.739,12.82-12.819,12.82l0,0C963.929,865.764,958.188,860.023,958.188,852.942z
							 M919.148,852.942c0-7.08,5.74-12.82,12.82-12.82l0,0c7.07,0,12.811,5.74,12.811,12.82l0,0c0,7.08-5.739,12.82-12.811,12.82
							l0,0C924.889,865.764,919.148,860.023,919.148,852.942z M880.099,852.942c0-7.08,5.75-12.82,12.82-12.82l0,0
							c7.08,0,12.819,5.74,12.819,12.82l0,0c0,7.08-5.739,12.82-12.819,12.82l0,0C885.849,865.764,880.099,860.023,880.099,852.942z
							 M841.059,852.942c0-7.08,5.74-12.82,12.82-12.82l0,0c7.08,0,12.819,5.74,12.819,12.82l0,0c0,7.08-5.739,12.82-12.819,12.82
							l0,0C846.799,865.764,841.059,860.023,841.059,852.942z M802.019,852.942c0-7.08,5.74-12.82,12.82-12.82l0,0
							c7.069,0,12.81,5.74,12.81,12.82l0,0c0,7.08-5.739,12.82-12.81,12.82l0,0C807.759,865.764,802.019,860.023,802.019,852.942z
							 M762.979,852.942c0-7.08,5.74-12.82,12.812-12.82l0,0c7.079,0,12.818,5.74,12.818,12.82l0,0c0,7.08-5.739,12.82-12.818,12.82
							l0,0C768.719,865.764,762.979,860.023,762.979,852.942z M723.929,852.942c0-7.08,5.74-12.82,12.82-12.82l0,0
							c7.08,0,12.819,5.74,12.819,12.82l0,0c0,7.08-5.739,12.82-12.819,12.82l0,0C729.669,865.764,723.929,860.023,723.929,852.942z
							 M684.889,852.942c0-7.08,5.74-12.82,12.82-12.82l0,0c7.08,0,12.81,5.74,12.81,12.82l0,0c0,7.08-5.729,12.82-12.81,12.82l0,0
							C690.629,865.764,684.889,860.023,684.889,852.942z"/>
					</g>
					<g>
						<path fill="#627CFF" d="M658.658,865.764c-3.369,0-6.67-1.37-9.061-3.76c-2.39-2.381-3.75-5.69-3.75-9.061
							s1.36-6.68,3.75-9.06c2.38-2.391,5.69-3.761,9.061-3.761c3.381,0,6.681,1.37,9.069,3.761c2.38,2.38,3.75,5.689,3.75,9.06
							s-1.37,6.68-3.75,9.061C665.339,864.394,662.039,865.764,658.658,865.764z"/>
					</g>
				</g>
			</g>
		</g>
		<g>
			<g>
				<path fill="#00EBFA" d="M1110.005,402.47H768.616c-7.078,0-12.816-5.738-12.816-12.817c0-7.079,5.737-12.817,12.816-12.817
					h341.389c7.079,0,12.816,5.738,12.816,12.817C1122.821,396.731,1117.084,402.47,1110.005,402.47z"/>
			</g>
			<g>
				<path fill="#00EBFA" d="M1030.729,444.588H424.932c-7.079,0-12.817-5.738-12.817-12.817s5.738-12.817,12.817-12.817h605.798
					c7.079,0,12.817,5.738,12.817,12.817S1037.809,444.588,1030.729,444.588z"/>
			</g>
			<g>
				<path fill="#00EBFA" d="M924.912,528.821H650.384c-7.079,0-12.817-5.737-12.817-12.816s5.738-12.817,12.817-12.817h274.528
					c7.078,0,12.816,5.738,12.816,12.817C937.729,523.084,931.99,528.821,924.912,528.821z"/>
			</g>
			<g>
				<path fill="#00EBFA" d="M1252.128,486.704h-182.259c-7.078,0-12.816-5.737-12.816-12.816s5.738-12.817,12.816-12.817h182.259
					c7.079,0,12.816,5.738,12.816,12.817S1259.207,486.704,1252.128,486.704z"/>
			</g>
			<g>
				<path fill="#00EBFA" d="M1295.858,570.939h-489.18c-7.079,0-12.817-5.739-12.817-12.818c0-7.078,5.738-12.817,12.817-12.817
					h489.18c7.079,0,12.817,5.739,12.817,12.817C1308.676,565.2,1302.938,570.939,1295.858,570.939z"/>
			</g>
			<g>
				<path fill="#00EBFA" d="M718.278,613.057H534.257c-7.079,0-12.817-5.738-12.817-12.817s5.738-12.816,12.817-12.816h184.021
					c7.079,0,12.817,5.737,12.817,12.816S725.358,613.057,718.278,613.057z"/>
			</g>
			<g>
				<path fill="#00EBFA" d="M1186.531,655.174H835.833c-7.079,0-12.817-5.738-12.817-12.817s5.738-12.817,12.817-12.817h350.698
					c7.079,0,12.817,5.738,12.817,12.817S1193.61,655.174,1186.531,655.174z"/>
			</g>
			<g>
				<path fill="#00EBFA" d="M1030.729,781.525H315.606c-7.079,0-12.816-5.739-12.816-12.818c0-7.078,5.737-12.817,12.816-12.817
					h715.123c7.079,0,12.817,5.739,12.817,12.817C1043.547,775.786,1037.809,781.525,1030.729,781.525z"/>
			</g>
			<g>
				<path fill="#00EBFA" d="M924.912,697.291H650.384c-7.079,0-12.817-5.738-12.817-12.817s5.738-12.817,12.817-12.817h274.528
					c7.078,0,12.816,5.738,12.816,12.817S931.99,697.291,924.912,697.291z"/>
			</g>
			<g>
				<path fill="#00EBFA" d="M955.734,739.408H795.342c-7.079,0-12.817-5.737-12.817-12.816s5.738-12.817,12.817-12.817h160.393
					c7.079,0,12.817,5.738,12.817,12.817S962.813,739.408,955.734,739.408z"/>
			</g>
			<g>
				<path fill="#00EBFA" d="M1186.531,823.643H806.679c-7.079,0-12.817-5.738-12.817-12.817s5.738-12.816,12.817-12.816h379.854
					c7.078,0,12.816,5.737,12.816,12.816S1193.61,823.643,1186.531,823.643z"/>
			</g>
			<g>
				<path fill="#00EBFA" d="M619.886,865.76H435.863c-7.079,0-12.816-5.738-12.816-12.817s5.737-12.817,12.816-12.817h184.021
					c7.079,0,12.816,5.738,12.816,12.817S626.965,865.76,619.886,865.76z"/>
			</g>
		</g>
	</g>
	<g>
		<g>
			<g>
				<g>
					<g>
						<path fill="#627CFF" d="M1153.738,907.873c-3.381,0-6.681-1.359-9.069-3.75c-2.38-2.389-3.75-5.689-3.75-9.059
							c0-3.381,1.37-6.682,3.75-9.07c2.39-2.381,5.688-3.75,9.069-3.75c3.369,0,6.67,1.369,9.061,3.75
							c2.39,2.391,3.75,5.689,3.75,9.07c0,3.369-1.36,6.67-3.75,9.059C1160.408,906.513,1157.108,907.873,1153.738,907.873z"/>
					</g>
					<g>
						<path fill="#627CFF" d="M1101.799,895.052c0-7.068,5.74-12.811,12.819-12.811l0,0c7.08,0,12.819,5.74,12.819,12.811l0,0
							c0,7.08-5.739,12.82-12.819,12.82l0,0C1107.539,907.873,1101.799,902.132,1101.799,895.052z M1062.679,895.052
							c0-7.068,5.74-12.811,12.819-12.811l0,0c7.08,0,12.82,5.74,12.82,12.811l0,0c0,7.08-5.74,12.82-12.82,12.82l0,0
							C1068.419,907.873,1062.679,902.132,1062.679,895.052z M1023.568,895.052c0-7.068,5.739-12.811,12.811-12.811l0,0
							c7.08,0,12.819,5.74,12.819,12.811l0,0c0,7.08-5.739,12.82-12.819,12.82l0,0
							C1029.309,907.873,1023.568,902.132,1023.568,895.052z M984.448,895.052c0-7.068,5.739-12.811,12.819-12.811l0,0
							c7.08,0,12.82,5.74,12.82,12.811l0,0c0,7.08-5.74,12.82-12.82,12.82l0,0C990.188,907.873,984.448,902.132,984.448,895.052z"/>
					</g>
					<g>
						<path fill="#627CFF" d="M958.148,907.873c-3.369,0-6.67-1.359-9.06-3.75c-2.391-2.389-3.75-5.689-3.75-9.059
							c0-3.381,1.359-6.682,3.75-9.07c2.38-2.381,5.689-3.75,9.06-3.75c3.381,0,6.682,1.369,9.07,3.75
							c2.38,2.391,3.75,5.689,3.75,9.07c0,3.369-1.37,6.67-3.75,9.059C964.828,906.513,961.528,907.873,958.148,907.873z"/>
					</g>
				</g>
			</g>
			<g>
				<g>
					<g>
						<path fill="#627CFF" d="M501.459,949.994c-3.381,0-6.681-1.371-9.062-3.75c-2.39-2.391-3.76-5.689-3.76-9.07
							c0-3.369,1.37-6.67,3.76-9.061c2.381-2.391,5.69-3.76,9.062-3.76s6.68,1.369,9.06,3.76c2.391,2.391,3.761,5.689,3.761,9.061
							c0,3.381-1.37,6.682-3.761,9.07C508.139,948.623,504.828,949.994,501.459,949.994z"/>
					</g>
					<g>
						<path fill="#627CFF" d="M566.299,937.173c0-7.08,5.74-12.811,12.82-12.811l0,0c7.079,0,12.818,5.729,12.818,12.811l0,0
							c0,7.08-5.739,12.818-12.818,12.818l0,0C572.039,949.994,566.299,944.253,566.299,937.173z M527.469,937.173
							c0-7.08,5.74-12.811,12.82-12.811l0,0c7.08,0,12.818,5.729,12.818,12.811l0,0c0,7.08-5.738,12.818-12.818,12.818l0,0
							C533.209,949.994,527.469,944.253,527.469,937.173z"/>
					</g>
					<g>
						<path fill="#627CFF" d="M617.948,949.994c-3.37,0-6.67-1.371-9.061-3.75c-2.38-2.391-3.75-5.689-3.75-9.07
							c0-3.369,1.37-6.68,3.75-9.061c2.391-2.391,5.69-3.75,9.061-3.75c3.38,0,6.681,1.359,9.069,3.75
							c2.38,2.391,3.75,5.689,3.75,9.061c0,3.381-1.37,6.682-3.75,9.07C624.629,948.623,621.328,949.994,617.948,949.994z"/>
					</g>
				</g>
			</g>
			<g>
				<g>
					<g>
						<path fill="#627CFF" d="M1372.389,1034.222c-3.38,0-6.68-1.359-9.07-3.75c-2.38-2.379-3.75-5.689-3.75-9.061
							s1.37-6.68,3.75-9.068c2.392-2.381,5.69-3.75,9.07-3.75c3.37,0,6.67,1.369,9.061,3.75c2.391,2.391,3.761,5.699,3.761,9.068
							c0,3.371-1.37,6.682-3.761,9.061C1379.067,1032.863,1375.759,1034.222,1372.389,1034.222z"/>
					</g>
					<g>
						<path fill="#627CFF" d="M1322.567,1021.414c0-7.08,5.74-12.82,12.82-12.82l0,0c7.08,0,12.811,5.74,12.811,12.82l0,0
							c0,7.07-5.729,12.811-12.811,12.811l0,0C1328.309,1034.222,1322.567,1028.484,1322.567,1021.414z M1285.567,1021.414
							c0-7.08,5.74-12.82,12.82-12.82l0,0c7.069,0,12.811,5.74,12.811,12.82l0,0c0,7.07-5.739,12.811-12.811,12.811l0,0
							C1291.309,1034.222,1285.567,1028.484,1285.567,1021.414z M1248.567,1021.414c0-7.08,5.74-12.82,12.82-12.82l0,0
							c7.069,0,12.811,5.74,12.811,12.82l0,0c0,7.07-5.739,12.811-12.811,12.811l0,0
							C1254.309,1034.222,1248.567,1028.484,1248.567,1021.414z M1211.567,1021.414c0-7.08,5.74-12.82,12.82-12.82l0,0
							c7.069,0,12.811,5.74,12.811,12.82l0,0c0,7.07-5.739,12.811-12.811,12.811l0,0
							C1217.309,1034.222,1211.567,1028.484,1211.567,1021.414z M1174.568,1021.414c0-7.08,5.739-12.82,12.811-12.82l0,0
							c7.08,0,12.819,5.74,12.819,12.82l0,0c0,7.07-5.739,12.811-12.819,12.811l0,0
							C1180.309,1034.222,1174.568,1028.484,1174.568,1021.414z M1137.568,1021.414c0-7.08,5.739-12.82,12.811-12.82l0,0
							c7.08,0,12.819,5.74,12.819,12.82l0,0c0,7.07-5.739,12.811-12.819,12.811l0,0
							C1143.309,1034.222,1137.568,1028.484,1137.568,1021.414z M1100.568,1021.414c0-7.08,5.739-12.82,12.819-12.82l0,0
							c7.069,0,12.811,5.74,12.811,12.82l0,0c0,7.07-5.739,12.811-12.811,12.811l0,0
							C1106.309,1034.222,1100.568,1028.484,1100.568,1021.414z"/>
					</g>
					<g>
						<path fill="#627CFF" d="M1076.389,1034.222c-3.38,0-6.68-1.359-9.069-3.75c-2.381-2.379-3.75-5.689-3.75-9.061
							c0-3.379,1.369-6.68,3.75-9.059c2.391-2.391,5.689-3.762,9.069-3.762c3.37,0,6.67,1.371,9.061,3.762
							c2.391,2.379,3.75,5.68,3.75,9.059c0,3.371-1.369,6.682-3.75,9.061C1083.059,1032.863,1079.759,1034.222,1076.389,1034.222z"
							/>
					</g>
				</g>
				<g>
					<g>
						<path fill="#627CFF" d="M723.769,1034.222c-3.37,0-6.67-1.359-9.06-3.75c-2.391-2.391-3.75-5.689-3.75-9.061
							s1.359-6.68,3.75-9.068c2.39-2.381,5.688-3.75,9.06-3.75s6.681,1.369,9.07,3.75c2.38,2.391,3.75,5.699,3.75,9.068
							c0,3.371-1.37,6.67-3.75,9.061C730.448,1032.863,727.148,1034.222,723.769,1034.222z"/>
					</g>
					<g>
						<path fill="#627CFF" d="M673.898,1021.414c0-7.08,5.74-12.82,12.82-12.82l0,0c7.08,0,12.82,5.74,12.82,12.82l0,0
							c0,7.08-5.74,12.82-12.82,12.82l0,0C679.639,1034.234,673.898,1028.494,673.898,1021.414z M636.849,1021.414
							c0-7.08,5.74-12.82,12.82-12.82l0,0c7.08,0,12.81,5.74,12.81,12.82l0,0c0,7.08-5.729,12.82-12.81,12.82l0,0
							C642.589,1034.234,636.849,1028.494,636.849,1021.414z M599.799,1021.414c0-7.08,5.74-12.82,12.82-12.82l0,0
							c7.068,0,12.81,5.74,12.81,12.82l0,0c0,7.08-5.74,12.82-12.81,12.82l0,0C605.539,1034.234,599.799,1028.494,599.799,1021.414z
							 M562.749,1021.414c0-7.08,5.729-12.82,12.81-12.82l0,0c7.08,0,12.82,5.74,12.82,12.82l0,0c0,7.08-5.74,12.82-12.82,12.82l0,0
							C568.479,1034.234,562.749,1028.494,562.749,1021.414z M525.688,1021.414c0-7.08,5.74-12.82,12.82-12.82l0,0
							c7.08,0,12.819,5.74,12.819,12.82l0,0c0,7.08-5.739,12.82-12.819,12.82l0,0
							C531.429,1034.234,525.688,1028.494,525.688,1021.414z"/>
					</g>
					<g>
						<path fill="#627CFF" d="M501.459,1034.222c-3.37,0-6.681-1.359-9.062-3.75c-2.39-2.391-3.76-5.689-3.76-9.061
							c0-3.379,1.37-6.68,3.76-9.068c2.381-2.381,5.69-3.75,9.062-3.75s6.68,1.369,9.06,3.75c2.391,2.391,3.761,5.689,3.761,9.068
							c0,3.371-1.37,6.682-3.761,9.061C508.139,1032.863,504.828,1034.222,501.459,1034.222z"/>
					</g>
				</g>
			</g>
			<g>
				<g>
					<g>
						<path fill="#627CFF" d="M1153.738,992.113c-3.381,0-6.681-1.369-9.069-3.76c-2.38-2.381-3.75-5.68-3.75-9.061
							c0-3.369,1.37-6.68,3.75-9.061c2.39-2.391,5.688-3.76,9.069-3.76c3.369,0,6.67,1.369,9.061,3.76
							c2.39,2.391,3.75,5.689,3.75,9.061s-1.36,6.68-3.75,9.061C1160.408,990.744,1157.108,992.113,1153.738,992.113z"/>
					</g>
					<g>
						<path fill="#627CFF" d="M1102.698,979.294c0-7.08,5.739-12.82,12.819-12.82l0,0c7.08,0,12.82,5.74,12.82,12.82l0,0
							c0,7.078-5.74,12.818-12.82,12.818l0,0C1108.438,992.113,1102.698,986.373,1102.698,979.294z M1064.479,979.294
							c0-7.08,5.74-12.82,12.82-12.82l0,0c7.08,0,12.819,5.74,12.819,12.82l0,0c0,7.078-5.739,12.818-12.819,12.818l0,0
							C1070.219,992.113,1064.479,986.373,1064.479,979.294z M1026.259,979.294c0-7.08,5.74-12.82,12.819-12.82l0,0
							c7.08,0,12.819,5.74,12.819,12.82l0,0c0,7.078-5.739,12.818-12.819,12.818l0,0
							C1031.999,992.113,1026.259,986.373,1026.259,979.294z M988.049,979.294c0-7.08,5.729-12.82,12.81-12.82l0,0
							c7.08,0,12.82,5.74,12.82,12.82l0,0c0,7.078-5.74,12.818-12.82,12.818l0,0C993.778,992.113,988.049,986.373,988.049,979.294z
							 M949.828,979.294c0-7.08,5.74-12.82,12.819-12.82l0,0c7.07,0,12.812,5.74,12.812,12.82l0,0
							c0,7.078-5.74,12.818-12.812,12.818l0,0C955.568,992.113,949.828,986.373,949.828,979.294z M911.608,979.294
							c0-7.08,5.74-12.82,12.82-12.82l0,0c7.07,0,12.811,5.74,12.811,12.82l0,0c0,7.078-5.739,12.818-12.811,12.818l0,0
							C917.349,992.113,911.608,986.373,911.608,979.294z M873.389,979.294c0-7.08,5.74-12.82,12.82-12.82l0,0
							c7.069,0,12.81,5.74,12.81,12.82l0,0c0,7.078-5.739,12.818-12.81,12.818l0,0C879.129,992.113,873.389,986.373,873.389,979.294
							z M835.169,979.294c0-7.08,5.739-12.82,12.819-12.82l0,0c7.08,0,12.819,5.74,12.819,12.82l0,0
							c0,7.078-5.739,12.818-12.819,12.818l0,0C840.908,992.113,835.169,986.373,835.169,979.294z M796.948,979.294
							c0-7.08,5.739-12.82,12.819-12.82l0,0c7.08,0,12.82,5.74,12.82,12.82l0,0c0,7.078-5.74,12.818-12.82,12.818l0,0
							C802.688,992.113,796.948,986.373,796.948,979.294z M758.738,979.294c0-7.08,5.729-12.82,12.811-12.82l0,0
							c7.08,0,12.82,5.74,12.82,12.82l0,0c0,7.078-5.74,12.818-12.82,12.818l0,0C764.469,992.113,758.738,986.373,758.738,979.294z
							 M720.519,979.294c0-7.08,5.74-12.82,12.82-12.82l0,0c7.069,0,12.81,5.74,12.81,12.82l0,0c0,7.078-5.739,12.818-12.81,12.818
							l0,0C726.259,992.113,720.519,986.373,720.519,979.294z M682.299,979.294c0-7.08,5.74-12.82,12.82-12.82l0,0
							c7.079,0,12.818,5.74,12.818,12.82l0,0c0,7.078-5.739,12.818-12.818,12.818l0,0
							C688.039,992.113,682.299,986.373,682.299,979.294z"/>
					</g>
					<g>
						<path fill="#627CFF" d="M656.898,992.113c-3.38,0-6.68-1.369-9.06-3.76c-2.391-2.381-3.761-5.689-3.761-9.061
							s1.37-6.67,3.75-9.061c2.391-2.391,5.689-3.76,9.069-3.76c3.37,0,6.681,1.369,9.062,3.76c2.39,2.381,3.76,5.689,3.76,9.061
							c0,3.381-1.37,6.68-3.76,9.061C663.578,990.744,660.269,992.113,656.898,992.113z"/>
					</g>
				</g>
			</g>
			<g>
				<g>
					<g>
						<path fill="#627CFF" d="M1263.059,1076.343c-3.37,0-6.68-1.371-9.061-3.75c-2.391-2.391-3.76-5.689-3.76-9.07
							c0-3.369,1.369-6.67,3.76-9.061c2.381-2.381,5.689-3.75,9.061-3.75s6.681,1.369,9.061,3.75
							c2.391,2.391,3.761,5.689,3.761,9.061c0,3.381-1.37,6.68-3.761,9.07C1269.738,1074.972,1266.438,1076.343,1263.059,1076.343z"
							/>
					</g>
					<g>
						<path fill="#627CFF" d="M1212.129,1063.523c0-7.07,5.74-12.811,12.819-12.811l0,0c7.08,0,12.819,5.74,12.819,12.811l0,0
							c0,7.08-5.739,12.82-12.819,12.82l0,0C1217.869,1076.343,1212.129,1070.603,1212.129,1063.523z M1174.019,1063.523
							c0-7.07,5.75-12.811,12.82-12.811l0,0c7.08,0,12.819,5.74,12.819,12.811l0,0c0,7.08-5.739,12.82-12.819,12.82l0,0
							C1179.769,1076.343,1174.019,1070.603,1174.019,1063.523z M1135.919,1063.523c0-7.07,5.739-12.811,12.819-12.811l0,0
							c7.069,0,12.819,5.74,12.819,12.811l0,0c0,7.08-5.75,12.82-12.819,12.82l0,0
							C1141.658,1076.343,1135.919,1070.603,1135.919,1063.523z M1097.809,1063.523c0-7.07,5.74-12.811,12.82-12.811l0,0
							c7.08,0,12.819,5.74,12.819,12.811l0,0c0,7.08-5.739,12.82-12.819,12.82l0,0
							C1103.549,1076.343,1097.809,1070.603,1097.809,1063.523z M1059.698,1063.523c0-7.07,5.739-12.811,12.819-12.811l0,0
							c7.08,0,12.82,5.74,12.82,12.811l0,0c0,7.08-5.74,12.82-12.82,12.82l0,0
							C1065.438,1076.343,1059.698,1070.603,1059.698,1063.523z M1021.589,1063.523c0-7.07,5.739-12.811,12.819-12.811l0,0
							c7.08,0,12.819,5.74,12.819,12.811l0,0c0,7.08-5.739,12.82-12.819,12.82l0,0
							C1027.328,1076.343,1021.589,1070.603,1021.589,1063.523z M983.488,1063.523c0-7.07,5.739-12.811,12.819-12.811l0,0
							c7.07,0,12.811,5.74,12.811,12.811l0,0c0,7.08-5.739,12.82-12.811,12.82l0,0
							C989.229,1076.343,983.488,1070.603,983.488,1063.523z M945.379,1063.523c0-7.07,5.739-12.811,12.819-12.811l0,0
							c7.069,0,12.819,5.74,12.819,12.811l0,0c0,7.08-5.75,12.82-12.819,12.82l0,0
							C951.119,1076.343,945.379,1070.603,945.379,1063.523z"/>
					</g>
					<g>
						<path fill="#627CFF" d="M920.089,1076.343c-3.37,0-6.681-1.371-9.061-3.75c-2.391-2.391-3.761-5.689-3.761-9.07
							c0-3.369,1.37-6.67,3.761-9.061c2.38-2.391,5.689-3.75,9.061-3.75s6.68,1.359,9.06,3.75c2.392,2.391,3.761,5.689,3.761,9.061
							c0,3.381-1.369,6.68-3.761,9.07C926.769,1074.972,923.469,1076.343,920.089,1076.343z"/>
					</g>
				</g>
			</g>
			<g>
				<g>
					<g>
						<path fill="#627CFF" d="M413.999,1118.462c-3.381,0-6.681-1.369-9.062-3.75c-2.39-2.391-3.76-5.689-3.76-9.07
							c0-3.369,1.37-6.68,3.76-9.061c2.381-2.389,5.69-3.76,9.062-3.76c3.37,0,6.68,1.371,9.06,3.76
							c2.391,2.381,3.761,5.691,3.761,9.061c0,3.381-1.37,6.682-3.761,9.07C420.679,1117.093,417.368,1118.462,413.999,1118.462z"/>
					</g>
					<g>
						<path fill="#627CFF" d="M880.698,1105.642c0-7.078,5.739-12.818,12.819-12.818l0,0c7.08,0,12.82,5.74,12.82,12.818l0,0
							c0,7.08-5.74,12.82-12.82,12.82l0,0C886.438,1118.462,880.698,1112.722,880.698,1105.642z M843.809,1105.642
							c0-7.078,5.74-12.818,12.82-12.818l0,0c7.08,0,12.819,5.74,12.819,12.818l0,0c0,7.08-5.739,12.82-12.819,12.82l0,0
							C849.549,1118.462,843.809,1112.722,843.809,1105.642z M806.929,1105.642c0-7.078,5.74-12.818,12.82-12.818l0,0
							c7.069,0,12.81,5.74,12.81,12.818l0,0c0,7.08-5.739,12.82-12.81,12.82l0,0
							C812.669,1118.462,806.929,1112.722,806.929,1105.642z M770.039,1105.642c0-7.078,5.739-12.818,12.818-12.818l0,0
							c7.08,0,12.82,5.74,12.82,12.818l0,0c0,7.08-5.74,12.82-12.82,12.82l0,0C775.778,1118.462,770.039,1112.722,770.039,1105.642z
							 M733.158,1105.642c0-7.078,5.739-12.818,12.819-12.818l0,0c7.07,0,12.812,5.74,12.812,12.818l0,0
							c0,7.08-5.74,12.82-12.812,12.82l0,0C738.898,1118.462,733.158,1112.722,733.158,1105.642z M696.269,1105.642
							c0-7.078,5.74-12.818,12.82-12.818l0,0c7.08,0,12.819,5.74,12.819,12.818l0,0c0,7.08-5.739,12.82-12.819,12.82l0,0
							C702.009,1118.462,696.269,1112.722,696.269,1105.642z M659.379,1105.642c0-7.078,5.739-12.818,12.819-12.818l0,0
							c7.08,0,12.819,5.74,12.819,12.818l0,0c0,7.08-5.739,12.82-12.819,12.82l0,0
							C665.119,1118.462,659.379,1112.722,659.379,1105.642z M622.499,1105.642c0-7.078,5.739-12.818,12.819-12.818l0,0
							c7.069,0,12.811,5.74,12.811,12.818l0,0c0,7.08-5.74,12.82-12.811,12.82l0,0
							C628.238,1118.462,622.499,1112.722,622.499,1105.642z M585.608,1105.642c0-7.078,5.74-12.818,12.82-12.818l0,0
							c7.08,0,12.82,5.74,12.82,12.818l0,0c0,7.08-5.74,12.82-12.82,12.82l0,0C591.349,1118.462,585.608,1112.722,585.608,1105.642z
							 M548.729,1105.642c0-7.078,5.74-12.818,12.812-12.818l0,0c7.079,0,12.818,5.74,12.818,12.818l0,0
							c0,7.08-5.739,12.82-12.818,12.82l0,0C554.469,1118.462,548.729,1112.722,548.729,1105.642z M511.839,1105.642
							c0-7.078,5.739-12.818,12.819-12.818l0,0c7.08,0,12.819,5.74,12.819,12.818l0,0c0,7.08-5.739,12.82-12.819,12.82l0,0
							C517.578,1118.462,511.839,1112.722,511.839,1105.642z M474.948,1105.642c0-7.078,5.739-12.818,12.819-12.818l0,0
							c7.08,0,12.82,5.74,12.82,12.818l0,0c0,7.08-5.74,12.82-12.82,12.82l0,0C480.688,1118.462,474.948,1112.722,474.948,1105.642z
							 M438.068,1105.642c0-7.078,5.739-12.818,12.819-12.818l0,0c7.07,0,12.811,5.74,12.811,12.818l0,0
							c0,7.08-5.739,12.82-12.811,12.82l0,0C443.809,1118.462,438.068,1112.722,438.068,1105.642z"/>
					</g>
					<g>
						<path fill="#627CFF" d="M930.408,1118.462c-3.38,0-6.681-1.369-9.069-3.75c-2.38-2.391-3.75-5.699-3.75-9.07
							c0-3.369,1.37-6.67,3.75-9.061c2.39-2.389,5.689-3.76,9.069-3.76c3.37,0,6.67,1.371,9.061,3.76
							c2.39,2.391,3.76,5.691,3.76,9.061c0,3.371-1.37,6.682-3.76,9.07C937.078,1117.093,933.778,1118.462,930.408,1118.462z"/>
					</g>
				</g>
			</g>
			<g>
				<g>
					<g>
						<path fill="#627CFF" d="M1099.068,1160.583c-3.37,0-6.671-1.369-9.061-3.76c-2.391-2.381-3.76-5.689-3.76-9.061
							s1.369-6.682,3.76-9.061c2.39-2.391,5.689-3.76,9.061-3.76c3.38,0,6.681,1.369,9.069,3.76c2.38,2.379,3.75,5.689,3.75,9.061
							s-1.37,6.68-3.75,9.061C1105.749,1159.212,1102.448,1160.583,1099.068,1160.583z"/>
					</g>
					<g>
						<path fill="#627CFF" d="M1044.629,1147.763c0-7.08,5.74-12.82,12.819-12.82l0,0c7.069,0,12.811,5.74,12.811,12.82l0,0
							c0,7.08-5.74,12.818-12.811,12.818l0,0C1050.369,1160.583,1044.629,1154.843,1044.629,1147.763z M1002.999,1147.763
							c0-7.08,5.739-12.82,12.819-12.82l0,0c7.079,0,12.819,5.74,12.819,12.82l0,0c0,7.08-5.74,12.818-12.819,12.818l0,0
							C1008.738,1160.583,1002.999,1154.843,1002.999,1147.763z M961.369,1147.763c0-7.08,5.738-12.82,12.818-12.82l0,0
							c7.08,0,12.82,5.74,12.82,12.82l0,0c0,7.08-5.74,12.818-12.82,12.818l0,0C967.108,1160.583,961.369,1154.843,961.369,1147.763
							z M919.749,1147.763c0-7.08,5.739-12.82,12.81-12.82l0,0c7.08,0,12.82,5.74,12.82,12.82l0,0c0,7.08-5.74,12.818-12.82,12.818
							l0,0C925.488,1160.583,919.749,1154.843,919.749,1147.763z"/>
					</g>
					<g>
						<path fill="#627CFF" d="M890.938,1160.583c-3.38,0-6.68-1.369-9.069-3.76c-2.38-2.381-3.75-5.682-3.75-9.061
							c0-3.381,1.37-6.682,3.75-9.061c2.391-2.391,5.689-3.76,9.069-3.76c3.37,0,6.67,1.369,9.062,3.76
							c2.39,2.379,3.75,5.689,3.75,9.061s-1.36,6.68-3.75,9.061C897.608,1159.212,894.309,1160.583,890.938,1160.583z"/>
					</g>
				</g>
			</g>
			<g>
				<g>
					<g>
						<path fill="#627CFF" d="M501.459,1286.933c-3.37,0-6.681-1.369-9.062-3.76c-2.39-2.381-3.76-5.682-3.76-9.061
							c0-3.371,1.37-6.682,3.76-9.061c2.381-2.391,5.69-3.762,9.062-3.762s6.68,1.371,9.06,3.762
							c2.391,2.379,3.761,5.689,3.761,9.061c0,3.379-1.37,6.68-3.761,9.061C508.139,1285.564,504.828,1286.933,501.459,1286.933z"/>
					</g>
					<g>
						<path fill="#627CFF" d="M566.299,1274.113c0-7.08,5.74-12.818,12.82-12.818l0,0c7.079,0,12.818,5.738,12.818,12.818l0,0
							c0,7.08-5.739,12.82-12.818,12.82l0,0C572.039,1286.933,566.299,1281.193,566.299,1274.113z M527.469,1274.113
							c0-7.08,5.74-12.818,12.82-12.818l0,0c7.08,0,12.818,5.738,12.818,12.818l0,0c0,7.08-5.738,12.82-12.818,12.82l0,0
							C533.209,1286.933,527.469,1281.193,527.469,1274.113z"/>
					</g>
					<g>
						<path fill="#627CFF" d="M617.948,1286.933c-3.37,0-6.67-1.369-9.061-3.76c-2.38-2.381-3.75-5.682-3.75-9.061
							c0-3.371,1.37-6.682,3.75-9.061c2.391-2.391,5.69-3.75,9.061-3.75c3.38,0,6.681,1.359,9.069,3.75
							c2.38,2.379,3.75,5.689,3.75,9.061c0,3.379-1.37,6.68-3.75,9.061C624.629,1285.564,621.328,1286.933,617.948,1286.933z"/>
					</g>
				</g>
			</g>
			<g>
				<g>
					<g>
						<path fill="#627CFF" d="M1153.738,1202.703c-3.381,0-6.681-1.369-9.069-3.76c-2.38-2.391-3.75-5.689-3.75-9.061
							c0-3.381,1.37-6.68,3.75-9.068c2.39-2.381,5.688-3.75,9.069-3.75c3.369,0,6.67,1.369,9.061,3.75
							c2.39,2.389,3.75,5.688,3.75,9.068c0,3.369-1.36,6.67-3.75,9.061C1160.408,1201.333,1157.108,1202.703,1153.738,1202.703z"/>
					</g>
					<g>
						<path fill="#627CFF" d="M1102.238,1189.882c0-7.08,5.739-12.818,12.819-12.818l0,0c7.08,0,12.82,5.738,12.82,12.818l0,0
							c0,7.08-5.74,12.811-12.82,12.811l0,0C1107.979,1202.693,1102.238,1196.962,1102.238,1189.882z"/>
					</g>
					<g>
						<path fill="#627CFF" d="M1076.389,1202.693c-3.38,0-6.68-1.359-9.069-3.75c-2.381-2.391-3.75-5.689-3.75-9.061
							c0-3.381,1.369-6.68,3.75-9.068c2.391-2.381,5.689-3.75,9.069-3.75c3.37,0,6.67,1.369,9.061,3.75
							c2.391,2.389,3.75,5.688,3.75,9.068c0,3.369-1.369,6.67-3.75,9.061C1083.059,1201.333,1079.759,1202.693,1076.389,1202.693z"
							/>
					</g>
				</g>
				<g>
					<g>
						<path fill="#627CFF" d="M723.769,1202.693c-3.37,0-6.67-1.359-9.06-3.75c-2.391-2.391-3.75-5.689-3.75-9.061
							c0-3.381,1.359-6.68,3.75-9.068c2.39-2.381,5.688-3.75,9.06-3.75s6.681,1.369,9.07,3.75c2.38,2.389,3.75,5.688,3.75,9.068
							c0,3.369-1.37,6.67-3.75,9.061C730.448,1201.333,727.148,1202.693,723.769,1202.693z"/>
					</g>
					<g>
						<path fill="#627CFF" d="M673.849,1189.882c0-7.08,5.74-12.818,12.82-12.818l0,0c7.069,0,12.81,5.738,12.81,12.818l0,0
							c0,7.08-5.739,12.82-12.81,12.82l0,0C679.589,1202.703,673.849,1196.962,673.849,1189.882z M636.738,1189.882
							c0-7.08,5.739-12.818,12.819-12.818l0,0c7.08,0,12.82,5.738,12.82,12.818l0,0c0,7.08-5.74,12.82-12.82,12.82l0,0
							C642.479,1202.703,636.738,1196.962,636.738,1189.882z M599.639,1189.882c0-7.08,5.729-12.818,12.811-12.818l0,0
							c7.08,0,12.819,5.738,12.819,12.818l0,0c0,7.08-5.739,12.82-12.819,12.82l0,0
							C605.369,1202.703,599.639,1196.962,599.639,1189.882z M562.528,1189.882c0-7.08,5.739-12.818,12.819-12.818l0,0
							c7.08,0,12.82,5.738,12.82,12.818l0,0c0,7.08-5.74,12.82-12.82,12.82l0,0C568.269,1202.703,562.528,1196.962,562.528,1189.882
							z M525.419,1189.882c0-7.08,5.739-12.818,12.819-12.818l0,0c7.08,0,12.819,5.738,12.819,12.818l0,0
							c0,7.08-5.739,12.82-12.819,12.82l0,0C531.158,1202.703,525.419,1196.962,525.419,1189.882z M488.318,1189.882
							c0-7.08,5.739-12.818,12.819-12.818l0,0c7.07,0,12.811,5.738,12.811,12.818l0,0c0,7.08-5.739,12.82-12.811,12.82l0,0
							C494.059,1202.703,488.318,1196.962,488.318,1189.882z M451.209,1189.882c0-7.08,5.739-12.818,12.819-12.818l0,0
							c7.079,0,12.819,5.738,12.819,12.818l0,0c0,7.08-5.74,12.82-12.819,12.82l0,0
							C456.948,1202.703,451.209,1196.962,451.209,1189.882z M414.108,1189.882c0-7.08,5.74-12.818,12.812-12.818l0,0
							c7.08,0,12.819,5.738,12.819,12.818l0,0c0,7.08-5.739,12.82-12.819,12.82l0,0
							C419.849,1202.703,414.108,1196.962,414.108,1189.882z M376.999,1189.882c0-7.08,5.739-12.818,12.819-12.818l0,0
							c7.079,0,12.819,5.738,12.819,12.818l0,0c0,7.08-5.74,12.82-12.819,12.82l0,0
							C382.738,1202.703,376.999,1196.962,376.999,1189.882z M339.889,1189.882c0-7.08,5.74-12.818,12.82-12.818l0,0
							c7.08,0,12.819,5.738,12.819,12.818l0,0c0,7.08-5.739,12.82-12.819,12.82l0,0
							C345.629,1202.703,339.889,1196.962,339.889,1189.882z"/>
					</g>
					<g>
						<path fill="#627CFF" d="M315.608,1202.693c-3.38,0-6.68-1.359-9.068-3.75c-2.38-2.391-3.75-5.689-3.75-9.061
							s1.37-6.68,3.75-9.068c2.39-2.381,5.688-3.75,9.068-3.75c3.37,0,6.671,1.369,9.062,3.75c2.39,2.389,3.76,5.699,3.76,9.068
							s-1.37,6.67-3.76,9.061C322.278,1201.333,318.979,1202.693,315.608,1202.693z"/>
					</g>
				</g>
			</g>
			<g>
				<g>
					<g>
						<path fill="#627CFF" d="M1263.059,1244.814c-3.37,0-6.68-1.371-9.061-3.75c-2.391-2.391-3.76-5.691-3.76-9.07
							c0-3.371,1.369-6.67,3.76-9.061c2.381-2.381,5.689-3.75,9.061-3.75s6.681,1.369,9.061,3.75
							c2.391,2.391,3.761,5.689,3.761,9.061c0,3.379-1.37,6.68-3.761,9.07C1269.738,1243.443,1266.429,1244.814,1263.059,1244.814z"
							/>
					</g>
					<g>
						<path fill="#627CFF" d="M1213.398,1232.003c0-7.08,5.73-12.82,12.812-12.82l0,0c7.08,0,12.819,5.74,12.819,12.82l0,0
							c0,7.07-5.739,12.811-12.819,12.811l0,0C1219.129,1244.814,1213.398,1239.074,1213.398,1232.003z M1176.539,1232.003
							c0-7.08,5.75-12.82,12.818-12.82l0,0c7.08,0,12.82,5.74,12.82,12.82l0,0c0,7.07-5.74,12.811-12.82,12.811l0,0
							C1182.289,1244.814,1176.539,1239.074,1176.539,1232.003z M1139.698,1232.003c0-7.08,5.739-12.82,12.819-12.82l0,0
							c7.08,0,12.811,5.74,12.811,12.82l0,0c0,7.07-5.729,12.811-12.811,12.811l0,0
							C1145.438,1244.814,1139.698,1239.074,1139.698,1232.003z M1102.849,1232.003c0-7.08,5.74-12.82,12.82-12.82l0,0
							c7.079,0,12.819,5.74,12.819,12.82l0,0c0,7.07-5.74,12.811-12.819,12.811l0,0
							C1108.589,1244.814,1102.849,1239.074,1102.849,1232.003z M1065.999,1232.003c0-7.08,5.739-12.82,12.819-12.82l0,0
							c7.079,0,12.819,5.74,12.819,12.82l0,0c0,7.07-5.74,12.811-12.819,12.811l0,0
							C1071.738,1244.814,1065.999,1239.074,1065.999,1232.003z M1029.148,1232.003c0-7.08,5.74-12.82,12.82-12.82l0,0
							c7.08,0,12.82,5.74,12.82,12.82l0,0c0,7.07-5.74,12.811-12.82,12.811l0,0
							C1034.889,1244.814,1029.148,1239.074,1029.148,1232.003z M992.309,1232.003c0-7.08,5.74-12.82,12.811-12.82l0,0
							c7.08,0,12.819,5.74,12.819,12.82l0,0c0,7.07-5.739,12.811-12.819,12.811l0,0
							C998.049,1244.814,992.309,1239.074,992.309,1232.003z M955.459,1232.003c0-7.08,5.739-12.82,12.819-12.82l0,0
							c7.069,0,12.811,5.74,12.811,12.82l0,0c0,7.07-5.74,12.811-12.811,12.811l0,0
							C961.198,1244.814,955.459,1239.074,955.459,1232.003z"/>
					</g>
					<g>
						<path fill="#627CFF" d="M931.429,1244.814c-3.38,0-6.68-1.371-9.06-3.75c-2.392-2.391-3.762-5.691-3.762-9.062
							c0-3.379,1.37-6.68,3.75-9.068c2.392-2.381,5.7-3.75,9.07-3.75s6.67,1.369,9.061,3.75c2.391,2.391,3.761,5.689,3.761,9.068
							c0,3.371-1.37,6.672-3.761,9.062C938.099,1243.443,934.799,1244.814,931.429,1244.814z"/>
					</g>
				</g>
				<g>
					<g>
						<path fill="#627CFF" d="M693.979,1244.814c-3.37,0-6.68-1.371-9.06-3.75c-2.391-2.391-3.761-5.691-3.761-9.062
							c0-3.379,1.37-6.68,3.761-9.068c2.38-2.391,5.688-3.75,9.06-3.75s6.682,1.359,9.062,3.75c2.39,2.391,3.76,5.689,3.76,9.068
							c0,3.371-1.37,6.672-3.76,9.062C700.658,1243.443,697.349,1244.814,693.979,1244.814z"/>
					</g>
					<g>
						<path fill="#627CFF" d="M645.188,1232.003c0-7.09,5.74-12.82,12.82-12.82l0,0c7.08,0,12.819,5.73,12.819,12.82l0,0
							c0,7.07-5.739,12.811-12.819,12.811l0,0C650.929,1244.814,645.188,1239.074,645.188,1232.003z M609.229,1232.003
							c0-7.09,5.74-12.82,12.812-12.82l0,0c7.079,0,12.818,5.73,12.818,12.82l0,0c0,7.07-5.739,12.811-12.818,12.811l0,0
							C614.969,1244.814,609.229,1239.074,609.229,1232.003z M573.259,1232.003c0-7.09,5.74-12.82,12.819-12.82l0,0
							c7.08,0,12.811,5.73,12.811,12.82l0,0c0,7.07-5.729,12.811-12.811,12.811l0,0
							C578.999,1244.814,573.259,1239.074,573.259,1232.003z M537.289,1232.003c0-7.09,5.739-12.82,12.818-12.82l0,0
							c7.08,0,12.82,5.73,12.82,12.82l0,0c0,7.07-5.74,12.811-12.82,12.811l0,0C543.028,1244.814,537.289,1239.074,537.289,1232.003
							z M501.318,1232.003c0-7.09,5.739-12.82,12.819-12.82l0,0c7.08,0,12.82,5.73,12.82,12.82l0,0c0,7.07-5.74,12.811-12.82,12.811
							l0,0C507.059,1244.814,501.318,1239.074,501.318,1232.003z M465.349,1232.003c0-7.09,5.74-12.82,12.82-12.82l0,0
							c7.08,0,12.819,5.73,12.819,12.82l0,0c0,7.07-5.739,12.811-12.819,12.811l0,0
							C471.089,1244.814,465.349,1239.074,465.349,1232.003z M429.389,1232.003c0-7.09,5.74-12.82,12.82-12.82l0,0
							c7.069,0,12.81,5.73,12.81,12.82l0,0c0,7.07-5.739,12.811-12.81,12.811l0,0
							C435.129,1244.814,429.389,1239.074,429.389,1232.003z M393.419,1232.003c0-7.09,5.739-12.82,12.819-12.82l0,0
							c7.069,0,12.811,5.73,12.811,12.82l0,0c0,7.07-5.74,12.811-12.811,12.811l0,0
							C399.158,1244.814,393.419,1239.074,393.419,1232.003z"/>
					</g>
					<g>
						<path fill="#627CFF" d="M370.269,1244.814c-3.37,0-6.68-1.371-9.06-3.75c-2.391-2.391-3.761-5.691-3.761-9.07
							c0-3.371,1.37-6.67,3.75-9.061c2.391-2.391,5.699-3.75,9.069-3.75s6.681,1.359,9.061,3.75
							c2.391,2.391,3.761,5.689,3.761,9.061c0,3.379-1.37,6.68-3.761,9.07C376.938,1243.443,373.639,1244.814,370.269,1244.814z"/>
					</g>
				</g>
			</g>
			<g>
				<g>
					<g>
						<path fill="#627CFF" d="M1295.858,1329.052c-3.38,0-6.68-1.369-9.06-3.76c-2.391-2.391-3.76-5.689-3.76-9.061
							s1.369-6.68,3.76-9.061c2.38-2.391,5.68-3.76,9.06-3.76c3.37,0,6.682,1.369,9.062,3.76c2.39,2.381,3.76,5.682,3.76,9.061
							c0,3.371-1.37,6.68-3.76,9.061C1302.539,1327.683,1299.229,1329.052,1295.858,1329.052z"/>
					</g>
					<g>
						<path fill="#627CFF" d="M1245.459,1316.234c0-7.08,5.739-12.82,12.819-12.82l0,0c7.079,0,12.819,5.74,12.819,12.82l0,0
							c0,7.08-5.74,12.818-12.819,12.818l0,0C1251.198,1329.052,1245.459,1323.314,1245.459,1316.234z M1207.889,1316.234
							c0-7.08,5.74-12.82,12.82-12.82l0,0c7.069,0,12.81,5.74,12.81,12.82l0,0c0,7.08-5.739,12.818-12.81,12.818l0,0
							C1213.629,1329.052,1207.889,1323.314,1207.889,1316.234z M1170.309,1316.234c0-7.08,5.74-12.82,12.82-12.82l0,0
							c7.069,0,12.819,5.74,12.819,12.82l0,0c0,7.08-5.75,12.818-12.819,12.818l0,0
							C1176.049,1329.052,1170.309,1323.314,1170.309,1316.234z M1132.729,1316.234c0-7.08,5.74-12.82,12.82-12.82l0,0
							c7.08,0,12.819,5.74,12.819,12.82l0,0c0,7.08-5.739,12.818-12.819,12.818l0,0
							C1138.469,1329.052,1132.729,1323.314,1132.729,1316.234z M1095.158,1316.234c0-7.08,5.739-12.82,12.811-12.82l0,0
							c7.08,0,12.82,5.74,12.82,12.82l0,0c0,7.08-5.74,12.818-12.82,12.818l0,0
							C1100.898,1329.052,1095.158,1323.314,1095.158,1316.234z M1057.578,1316.234c0-7.08,5.74-12.82,12.819-12.82l0,0
							c7.08,0,12.82,5.74,12.82,12.82l0,0c0,7.08-5.74,12.818-12.82,12.818l0,0
							C1063.318,1329.052,1057.578,1323.314,1057.578,1316.234z M1019.999,1316.234c0-7.08,5.739-12.82,12.819-12.82l0,0
							c7.079,0,12.819,5.74,12.819,12.82l0,0c0,7.08-5.74,12.818-12.819,12.818l0,0
							C1025.738,1329.052,1019.999,1323.314,1019.999,1316.234z M982.429,1316.234c0-7.08,5.74-12.82,12.811-12.82l0,0
							c7.08,0,12.819,5.74,12.819,12.82l0,0c0,7.08-5.739,12.818-12.819,12.818l0,0
							C988.169,1329.052,982.429,1323.314,982.429,1316.234z M944.849,1316.234c0-7.08,5.74-12.82,12.82-12.82l0,0
							c7.08,0,12.81,5.74,12.81,12.82l0,0c0,7.08-5.729,12.818-12.81,12.818l0,0
							C950.589,1329.052,944.849,1323.314,944.849,1316.234z"/>
					</g>
					<g>
						<path fill="#627CFF" d="M920.089,1329.052c-3.38,0-6.681-1.369-9.061-3.76c-2.391-2.381-3.761-5.689-3.761-9.061
							c0-3.379,1.37-6.68,3.761-9.061c2.38-2.391,5.689-3.76,9.061-3.76s6.68,1.369,9.06,3.76c2.392,2.381,3.761,5.682,3.761,9.061
							c0,3.371-1.369,6.68-3.761,9.061C926.769,1327.683,923.469,1329.052,920.089,1329.052z"/>
					</g>
				</g>
			</g>
			<g>
				<g>
					<g>
						<path fill="#627CFF" d="M599.849,1371.164c-3.37,0-6.67-1.359-9.06-3.75c-2.392-2.381-3.75-5.689-3.75-9.07
							c0-3.369,1.358-6.67,3.75-9.061c2.39-2.379,5.688-3.75,9.06-3.75c3.38,0,6.681,1.371,9.07,3.75
							c2.38,2.391,3.75,5.689,3.75,9.061c0,3.381-1.37,6.682-3.75,9.07C606.528,1369.802,603.229,1371.164,599.849,1371.164z"/>
					</g>
					<g>
						<path fill="#627CFF" d="M976.979,1358.353c0-7.08,5.75-12.82,12.82-12.82l0,0c7.08,0,12.82,5.74,12.82,12.82l0,0
							c0,7.07-5.74,12.811-12.82,12.811l0,0C982.729,1371.164,976.979,1365.423,976.979,1358.353z M937.988,1358.353
							c0-7.08,5.739-12.82,12.819-12.82l0,0c7.08,0,12.82,5.74,12.82,12.82l0,0c0,7.07-5.74,12.811-12.82,12.811l0,0
							C943.729,1371.164,937.988,1365.423,937.988,1358.353z M898.988,1358.353c0-7.08,5.739-12.82,12.819-12.82l0,0
							c7.08,0,12.82,5.74,12.82,12.82l0,0c0,7.07-5.74,12.811-12.82,12.811l0,0C904.729,1371.164,898.988,1365.423,898.988,1358.353
							z M859.999,1358.353c0-7.08,5.739-12.82,12.819-12.82l0,0c7.079,0,12.819,5.74,12.819,12.82l0,0
							c0,7.07-5.74,12.811-12.819,12.811l0,0C865.738,1371.164,859.999,1365.423,859.999,1358.353z M820.999,1358.353
							c0-7.08,5.739-12.82,12.819-12.82l0,0c7.079,0,12.819,5.74,12.819,12.82l0,0c0,7.07-5.74,12.811-12.819,12.811l0,0
							C826.738,1371.164,820.999,1365.423,820.999,1358.353z M782.009,1358.353c0-7.08,5.74-12.82,12.819-12.82l0,0
							c7.08,0,12.819,5.74,12.819,12.82l0,0c0,7.07-5.739,12.811-12.819,12.811l0,0
							C787.749,1371.164,782.009,1365.423,782.009,1358.353z M743.019,1358.353c0-7.08,5.73-12.82,12.812-12.82l0,0
							c7.079,0,12.818,5.74,12.818,12.82l0,0c0,7.07-5.739,12.811-12.818,12.811l0,0
							C748.749,1371.164,743.019,1365.423,743.019,1358.353z M704.019,1358.353c0-7.08,5.74-12.82,12.82-12.82l0,0
							c7.08,0,12.819,5.74,12.819,12.82l0,0c0,7.07-5.739,12.811-12.819,12.811l0,0
							C709.759,1371.164,704.019,1365.423,704.019,1358.353z M665.019,1358.353c0-7.08,5.74-12.82,12.82-12.82l0,0
							c7.08,0,12.819,5.74,12.819,12.82l0,0c0,7.07-5.739,12.811-12.819,12.811l0,0
							C670.759,1371.164,665.019,1365.423,665.019,1358.353z M626.028,1358.353c0-7.08,5.739-12.82,12.819-12.82l0,0
							c7.08,0,12.82,5.74,12.82,12.82l0,0c0,7.07-5.74,12.811-12.82,12.811l0,0C631.769,1371.164,626.028,1365.423,626.028,1358.353
							z"/>
					</g>
					<g>
						<path fill="#627CFF" d="M1028.799,1371.164c-3.37,0-6.681-1.359-9.07-3.75c-2.38-2.391-3.75-5.689-3.75-9.061
							c0-3.381,1.37-6.68,3.75-9.07c2.391-2.379,5.69-3.75,9.07-3.75s6.68,1.371,9.06,3.75c2.392,2.391,3.761,5.689,3.761,9.07
							c0,3.369-1.369,6.67-3.761,9.061C1035.479,1369.802,1032.169,1371.164,1028.799,1371.164z"/>
					</g>
				</g>
			</g>
		</g>
		<g>
			<g>
				<path fill="#00EBFA" d="M919.374,907.878H577.986c-7.079,0-12.816-5.738-12.816-12.818c0-7.078,5.737-12.816,12.816-12.816
					h341.388c7.079,0,12.816,5.738,12.816,12.816C932.19,902.14,926.453,907.878,919.374,907.878z"/>
			</g>
			<g>
				<path fill="#00EBFA" d="M1263.061,949.994H657.263c-7.079,0-12.817-5.736-12.817-12.816c0-7.078,5.738-12.816,12.817-12.816
					h605.798c7.079,0,12.817,5.738,12.817,12.816C1275.878,944.257,1270.14,949.994,1263.061,949.994z"/>
			</g>
			<g>
				<path fill="#00EBFA" d="M1037.607,1034.228H763.078c-7.078,0-12.816-5.738-12.816-12.816c0-7.08,5.738-12.816,12.816-12.816
					h274.528c7.079,0,12.817,5.736,12.817,12.816C1050.424,1028.49,1044.687,1034.228,1037.607,1034.228z"/>
			</g>
			<g>
				<path fill="#00EBFA" d="M618.122,992.111H435.863c-7.079,0-12.816-5.738-12.816-12.816s5.737-12.816,12.816-12.816h182.258
					c7.079,0,12.817,5.738,12.817,12.816S625.2,992.111,618.122,992.111z"/>
			</g>
			<g>
				<path fill="#00EBFA" d="M881.312,1076.345H392.134c-7.079,0-12.817-5.738-12.817-12.816c0-7.08,5.738-12.818,12.817-12.818
					h489.179c7.079,0,12.817,5.738,12.817,12.818C894.13,1070.607,888.392,1076.345,881.312,1076.345z"/>
			</g>
			<g>
				<path fill="#00EBFA" d="M1153.734,1118.462H969.713c-7.079,0-12.817-5.738-12.817-12.816c0-7.08,5.738-12.818,12.817-12.818
					h184.021c7.079,0,12.817,5.738,12.817,12.818C1166.552,1112.724,1160.814,1118.462,1153.734,1118.462z"/>
			</g>
			<g>
				<path fill="#00EBFA" d="M852.158,1160.582H501.459c-7.079,0-12.817-5.738-12.817-12.816c0-7.08,5.738-12.818,12.817-12.818
					h350.699c7.079,0,12.817,5.738,12.817,12.818C864.976,1154.843,859.237,1160.582,852.158,1160.582z"/>
			</g>
			<g>
				<path fill="#00EBFA" d="M1372.386,1286.933H657.263c-7.079,0-12.817-5.738-12.817-12.818c0-7.078,5.738-12.816,12.817-12.816
					h715.123c7.079,0,12.817,5.738,12.817,12.816C1385.203,1281.195,1379.465,1286.933,1372.386,1286.933z"/>
			</g>
			<g>
				<path fill="#00EBFA" d="M1037.607,1202.699H763.078c-7.078,0-12.816-5.738-12.816-12.816c0-7.08,5.738-12.818,12.816-12.818
					h274.528c7.079,0,12.817,5.738,12.817,12.818C1050.424,1196.96,1044.687,1202.699,1037.607,1202.699z"/>
			</g>
			<g>
				<path fill="#00EBFA" d="M892.65,1244.816H732.258c-7.079,0-12.817-5.738-12.817-12.818c0-7.078,5.738-12.816,12.817-12.816
					H892.65c7.079,0,12.817,5.738,12.817,12.816C905.468,1239.078,899.729,1244.816,892.65,1244.816z"/>
			</g>
			<g>
				<path fill="#00EBFA" d="M881.312,1329.05H501.459c-7.079,0-12.817-5.738-12.817-12.818c0-7.078,5.738-12.816,12.817-12.816
					h379.853c7.079,0,12.817,5.738,12.817,12.816C894.129,1323.312,888.392,1329.05,881.312,1329.05z"/>
			</g>
			<g>
				<path fill="#00EBFA" d="M1252.128,1371.167h-184.022c-7.079,0-12.816-5.738-12.816-12.816c0-7.08,5.737-12.818,12.816-12.818
					h184.022c7.079,0,12.816,5.738,12.816,12.818C1264.944,1365.429,1259.207,1371.167,1252.128,1371.167z"/>
			</g>
		</g>
	</g>
</g>
</svg>
