<?xml version="1.0" encoding="utf-8"?>
<!-- Generator: Adobe Illustrator 16.0.0, SVG Export Plug-In . SVG Version: 6.00 Build 0)  -->
<!DOCTYPE svg PUBLIC "-//W3C//DTD SVG 1.1//EN" "http://www.w3.org/Graphics/SVG/1.1/DTD/svg11.dtd">
<svg version="1.1" id="Layer_1" xmlns="http://www.w3.org/2000/svg" xmlns:xlink="http://www.w3.org/1999/xlink" x="0px" y="0px"
	 width="228.378px" height="25px" viewBox="0 0 228.378 25" enable-background="new 0 0 228.378 25" xml:space="preserve">
<g>
	<path fill="#FFFFFF" d="M7.759,0.434c-0.975,0-1.767,0.792-1.767,1.766c0,0.976,0.792,1.767,1.767,1.767
		c0.975,0,1.766-0.791,1.766-1.767C9.524,1.225,8.734,0.434,7.759,0.434z M2.541,0.434c-0.975,0-1.767,0.792-1.767,1.766
		c0,0.976,0.792,1.767,1.767,1.767S4.307,3.175,4.307,2.2C4.307,1.225,3.516,0.434,2.541,0.434z M12.978,16.088
		c-0.975,0-1.767,0.792-1.767,1.763c0,0.98,0.792,1.771,1.767,1.771c0.975,0,1.766-0.791,1.766-1.771
		C14.743,16.88,13.952,16.088,12.978,16.088z M12.978,21.304c-0.975,0-1.767,0.79-1.767,1.761c0,0.979,0.792,1.771,1.767,1.771
		c0.975,0,1.766-0.792,1.766-1.771C14.743,22.094,13.952,21.304,12.978,21.304z M37.699,0.434c-0.979,0-1.771,0.792-1.771,1.766
		c0,0.976,0.792,1.767,1.771,1.767c0.97,0,1.761-0.791,1.761-1.767C39.46,1.225,38.669,0.434,37.699,0.434z M37.699,5.652
		c-0.979,0-1.771,0.792-1.771,1.766c0,0.975,0.792,1.767,1.771,1.767c0.97,0,1.761-0.792,1.761-1.767
		C39.46,6.444,38.669,5.652,37.699,5.652z M91.085,0.434c-0.975,0-1.767,0.792-1.767,1.766c0,0.976,0.792,1.767,1.767,1.767
		s1.766-0.791,1.766-1.767C92.851,1.225,92.06,0.434,91.085,0.434z M96.303,0.434c-0.975,0-1.767,0.792-1.767,1.766
		c0,0.976,0.792,1.767,1.767,1.767c0.975,0,1.766-0.791,1.766-1.767C98.069,1.225,97.278,0.434,96.303,0.434z M96.303,21.304
		c-0.975,0-1.767,0.79-1.767,1.765s0.792,1.767,1.767,1.767c0.975,0,1.766-0.792,1.766-1.767S97.278,21.304,96.303,21.304z
		 M101.522,21.304c-0.467,0-0.918,0.188-1.249,0.517c-0.331,0.33-0.518,0.786-0.518,1.254c0,0.462,0.188,0.919,0.518,1.242
		c0.33,0.332,0.782,0.519,1.249,0.519c0.462,0,0.918-0.187,1.248-0.519c0.33-0.323,0.518-0.78,0.518-1.242
		c0-0.468-0.188-0.924-0.518-1.254C102.44,21.492,101.984,21.304,101.522,21.304z M101.522,0.434c-0.975,0-1.767,0.792-1.767,1.766
		c0,0.976,0.792,1.767,1.767,1.767c0.975,0,1.766-0.791,1.766-1.767C103.288,1.225,102.497,0.434,101.522,0.434z M85.867,21.308
		c-0.976,0-1.767,0.79-1.767,1.767c0,0.979,0.791,1.767,1.767,1.767c0.975,0,1.766-0.788,1.766-1.767
		C87.632,22.098,86.841,21.308,85.867,21.308z M91.085,21.304c-0.975,0-1.767,0.79-1.767,1.765s0.792,1.767,1.767,1.767
		s1.766-0.792,1.766-1.767S92.06,21.304,91.085,21.304z M85.867,16.084c-0.976,0-1.767,0.792-1.767,1.767
		c0,0.98,0.791,1.766,1.767,1.766c0.975,0,1.766-0.785,1.766-1.766C87.632,16.876,86.841,16.084,85.867,16.084z M225.008,21.304
		c-0.975,0-1.767,0.79-1.767,1.765s0.792,1.767,1.767,1.767s1.766-0.792,1.766-1.767S225.982,21.304,225.008,21.304z M209.353,0.434
		c-0.974,0-1.767,0.792-1.767,1.766c0,0.976,0.793,1.767,1.767,1.767c0.976,0,1.767-0.791,1.767-1.767
		C211.119,1.225,210.328,0.434,209.353,0.434z M209.353,5.652c-0.974,0-1.767,0.792-1.767,1.766c0,0.975,0.793,1.767,1.767,1.767
		c0.976,0,1.767-0.792,1.767-1.767C211.119,6.444,210.328,5.652,209.353,5.652z M221.556,23.068c0-0.975-0.792-1.765-1.766-1.765
		c-0.976,0-1.767,0.79-1.767,1.765s0.791,1.767,1.767,1.767C220.764,24.835,221.556,24.043,221.556,23.068z M190.485,1.518
		c-0.885-0.401-1.936-0.01-2.337,0.879c-0.403,0.886-0.009,1.937,0.877,2.337h0.005c0.235,0.108,0.485,0.16,0.726,0.16
		c0.673,0,1.314-0.386,1.61-1.04C191.771,2.967,191.376,1.922,190.485,1.518z M177.298,19.376c-0.641,0.738-0.56,1.851,0.179,2.492
		c0.335,0.286,0.744,0.428,1.154,0.428c0.494,0,0.989-0.206,1.338-0.607c0.636-0.738,0.556-1.854-0.18-2.491
		C179.049,18.557,177.934,18.637,177.298,19.376z M177.139,15.095c-0.279-0.937-1.258-1.474-2.195-1.195
		c-0.933,0.278-1.47,1.258-1.193,2.192c0.228,0.771,0.93,1.269,1.692,1.269c0.165,0,0.334-0.023,0.503-0.07
		C176.879,17.012,177.416,16.028,177.139,15.095z M184.23,21.217h-0.005c-0.965-0.136-1.855,0.538-1.991,1.504
		c-0.137,0.965,0.532,1.86,1.497,1.997c0.085,0.01,0.17,0.014,0.25,0.014c0.866,0,1.62-0.635,1.747-1.516
		C185.865,22.249,185.192,21.354,184.23,21.217z M183.938,4.074c0.081,0,0.169-0.004,0.255-0.019
		c0.966-0.141,1.635-1.036,1.492-2.001c-0.141-0.965-1.035-1.634-2.002-1.493c-0.964,0.141-1.634,1.036-1.492,2.001
		C182.319,3.443,183.071,4.074,183.938,4.074z M178.597,6.532c0.416,0,0.831-0.145,1.164-0.437c0.735-0.641,0.81-1.752,0.17-2.492
		c-0.641-0.735-1.757-0.81-2.491-0.17c-0.735,0.641-0.815,1.757-0.17,2.492C177.617,6.326,178.108,6.532,178.597,6.532z
		 M174.939,11.413c0.163,0.047,0.328,0.07,0.493,0.07c0.763,0,1.47-0.499,1.696-1.271c0.272-0.938-0.27-1.917-1.206-2.19
		c-0.933-0.273-1.912,0.268-2.187,1.202C173.465,10.159,174.001,11.14,174.939,11.413z M128.288,10.868
		c-0.974,0-1.766,0.792-1.766,1.767c0,0.975,0.792,1.765,1.766,1.765c0.977,0,1.767-0.791,1.767-1.765
		C130.055,11.659,129.265,10.868,128.288,10.868z M117.643,5.652c-0.974,0-1.765,0.792-1.765,1.766c0,0.975,0.792,1.767,1.765,1.767
		c0.977,0,1.767-0.792,1.767-1.767C119.409,6.444,118.619,5.652,117.643,5.652z M117.643,0.434c-0.974,0-1.765,0.792-1.765,1.766
		c0,0.976,0.792,1.767,1.765,1.767c0.977,0,1.767-0.791,1.767-1.767C119.409,1.225,118.619,0.434,117.643,0.434z M128.297,0.434
		c-0.975,0-1.767,0.792-1.767,1.766c0,0.976,0.792,1.767,1.767,1.767c0.976,0,1.766-0.791,1.766-1.767
		C130.062,1.225,129.272,0.434,128.297,0.434z M132.638,8.205c-0.976,0-1.766,0.792-1.766,1.766c0,0.975,0.79,1.767,1.766,1.767
		c0.975,0,1.766-0.792,1.766-1.767C134.403,8.996,133.612,8.205,132.638,8.205z M132.638,3.109c-0.976,0-1.766,0.792-1.766,1.766
		c0,0.976,0.79,1.767,1.766,1.767c0.975,0,1.766-0.791,1.766-1.767C134.403,3.901,133.612,3.109,132.638,3.109z M162.565,8.728
		c0.33,0,0.665-0.094,0.961-0.287c0.82-0.532,1.05-1.625,0.518-2.445c-0.531-0.814-1.624-1.05-2.444-0.518
		c-0.814,0.532-1.05,1.625-0.518,2.445C161.421,8.44,161.986,8.728,162.565,8.728z M157.413,20.52
		c-0.89,0.407-1.276,1.458-0.871,2.342c0.297,0.65,0.937,1.032,1.606,1.032c0.249,0,0.498-0.053,0.734-0.161
		c0.89-0.409,1.276-1.456,0.871-2.34C159.345,20.502,158.298,20.114,157.413,20.52z M163.545,16.785
		c-0.824-0.527-1.916-0.285-2.443,0.532c-0.528,0.82-0.288,1.913,0.531,2.441c0.297,0.188,0.627,0.281,0.951,0.281
		c0.585,0,1.15-0.287,1.488-0.81C164.601,18.406,164.365,17.313,163.545,16.785z M152.581,21.217
		c-0.966-0.136-1.86,0.538-1.997,1.504c-0.136,0.965,0.537,1.86,1.502,1.997c0.086,0.01,0.166,0.02,0.249,0.02
		c0.867,0,1.621-0.641,1.747-1.521C154.22,22.249,153.546,21.354,152.581,21.217z M145.648,19.376
		c-0.641,0.738-0.562,1.856,0.178,2.492c0.335,0.286,0.75,0.428,1.154,0.428c0.499,0,0.989-0.202,1.338-0.607
		c0.641-0.738,0.556-1.854-0.179-2.491C147.399,18.557,146.283,18.643,145.648,19.376z M164.232,10.824
		c-0.974,0.005-1.762,0.8-1.762,1.775c0,0.01,0,0.023,0.005,0.033h-0.005c0,0.979,0.793,1.765,1.766,1.765
		c0.98,0,1.772-0.786,1.772-1.765v-0.047C166.004,11.61,165.208,10.818,164.232,10.824z M145.487,15.095
		c-0.272-0.937-1.257-1.468-2.194-1.195c-0.933,0.278-1.47,1.262-1.19,2.192c0.225,0.771,0.927,1.269,1.689,1.269
		c0.165,0,0.335-0.023,0.505-0.07C145.233,17.012,145.765,16.032,145.487,15.095z M157.381,4.734
		c0.234,0.108,0.479,0.155,0.724,0.155c0.675,0,1.315-0.381,1.611-1.035c0.405-0.887,0.01-1.937-0.875-2.336
		c-0.891-0.405-1.941-0.01-2.341,0.879C156.099,3.283,156.491,4.329,157.381,4.734z M55.724,0.434c-0.975,0-1.762,0.792-1.762,1.766
		c0,0.976,0.787,1.767,1.762,1.767c0.979,0,1.771-0.791,1.771-1.767C57.494,1.225,56.703,0.434,55.724,0.434z M61.121,0.434
		c-0.975,0-1.762,0.792-1.762,1.766c0,0.976,0.787,1.767,1.762,1.767c0.98,0,1.771-0.791,1.771-1.767
		C62.892,1.225,62.101,0.434,61.121,0.434z M66.266,1.889c-0.976,0-1.762,0.792-1.762,1.767s0.786,1.766,1.762,1.766
		c0.979,0,1.771-0.791,1.771-1.766S67.245,1.889,66.266,1.889z M70.006,5.696c-0.976,0-1.762,0.792-1.762,1.766
		c0,0.976,0.786,1.767,1.762,1.767c0.979,0,1.77-0.792,1.77-1.767C71.776,6.488,70.986,5.696,70.006,5.696z M55.724,5.652
		c-0.975,0-1.762,0.792-1.762,1.766c0,0.975,0.787,1.767,1.762,1.767c0.979,0,1.771-0.792,1.771-1.767
		C57.494,6.444,56.703,5.652,55.724,5.652z M55.724,21.308c-0.975,0-1.762,0.792-1.762,1.767c0,0.973,0.787,1.767,1.762,1.767
		c0.979,0,1.771-0.794,1.771-1.767C57.494,22.1,56.703,21.308,55.724,21.308z M55.724,16.084c-0.975,0-1.762,0.796-1.762,1.771
		c0,0.977,0.787,1.768,1.762,1.768c0.979,0,1.771-0.791,1.771-1.768C57.494,16.88,56.703,16.084,55.724,16.084z M55.724,10.871
		c-0.975,0-1.762,0.787-1.762,1.767c0,0.975,0.787,1.766,1.762,1.766c0.979,0,1.771-0.792,1.771-1.766
		C57.494,11.657,56.703,10.871,55.724,10.871z M122.974,0.434c-0.973,0-1.766,0.792-1.766,1.766c0,0.976,0.793,1.767,1.766,1.767
		c0.977,0,1.768-0.791,1.768-1.767C124.741,1.225,123.95,0.434,122.974,0.434z"/>
	<g>
		<path fill="#617CFF" d="M71.379,10.855c-0.007,0-0.013,0-0.018,0c-0.911,0.009-1.641,0.754-1.631,1.665v0.115
			c0,4.799-3.905,8.742-8.704,8.787c-0.911,0.008-1.642,0.752-1.633,1.664c0.008,0.903,0.745,1.632,1.648,1.632
			c0.005,0,0.01,0,0.015,0c6.601-0.06,11.971-5.481,11.971-12.083v-0.149C73.016,11.582,72.281,10.855,71.379,10.855z"/>
		<path fill="#617CFF" d="M96.421,10.985h-8.907V2.083c0-0.911-0.738-1.649-1.648-1.649c-0.911,0-1.649,0.738-1.649,1.649v10.552
			c0,0.91,0.738,1.649,1.649,1.649h10.555c0.91,0,1.648-0.739,1.648-1.649C98.069,11.724,97.331,10.985,96.421,10.985z"/>
		<path fill="#617CFF" d="M23.411,0.551H12.978c-0.911,0-1.648,0.738-1.648,1.648v10.426c0,0.91,0.737,1.648,1.648,1.648
			c0.91,0,1.648-0.738,1.648-1.648V3.849h8.786c0.911,0,1.649-0.739,1.649-1.649S24.322,0.551,23.411,0.551z"/>
		<path fill="#617CFF" d="M37.696,10.868c-0.911,0-1.649,0.738-1.649,1.649v10.67c0,0.91,0.738,1.648,1.649,1.648
			c0.911,0,1.649-0.738,1.649-1.648v-10.67C39.345,11.606,38.607,10.868,37.696,10.868z"/>
		<path fill="#617CFF" d="M123.147,10.985h-5.506c-0.91,0-1.648,0.738-1.648,1.649v10.552c0,0.91,0.738,1.648,1.648,1.648
			s1.648-0.738,1.648-1.648v-8.903h3.857c0.908,0,1.647-0.739,1.647-1.649C124.795,11.724,124.056,10.985,123.147,10.985z"/>
		<path fill="#617CFF" d="M214.688,21.422h-3.686v-8.905c0-0.911-0.739-1.649-1.649-1.649s-1.648,0.738-1.648,1.649V23.07
			c0,0.911,0.738,1.649,1.648,1.649h5.335c0.91,0,1.649-0.738,1.649-1.649C216.338,22.16,215.599,21.422,214.688,21.422z"/>
		<path fill="#617CFF" d="M152.122,0.664c-4.665,0.651-8.549,3.991-9.896,8.509c-0.26,0.873,0.236,1.791,1.108,2.051
			c0.145,0.042,0.289,0.065,0.434,0.068c0.725,0.017,1.4-0.449,1.618-1.178c0.978-3.284,3.802-5.712,7.191-6.185
			c0.901-0.126,1.53-0.96,1.405-1.861C153.856,1.167,153.026,0.54,152.122,0.664z"/>
		<path fill="#617CFF" d="M193.448,5.729c-0.773,0.481-1.01,1.498-0.528,2.27c0.864,1.388,1.321,2.992,1.321,4.636
			c0,3.496-2.072,6.66-5.277,8.058c-0.834,0.364-1.215,1.336-0.852,2.17c0.271,0.619,0.877,0.989,1.513,0.989
			c0.219,0,0.443-0.043,0.658-0.136c4.407-1.925,7.255-6.274,7.255-11.082c0-2.261-0.63-4.467-1.819-6.378
			C195.236,5.484,194.22,5.248,193.448,5.729z"/>
	</g>
</g>
<g>
</g>
<g>
</g>
<g>
</g>
<g>
</g>
<g>
</g>
<g>
</g>
</svg>
